<?xml version="1.0" encoding="UTF-8"?>
<svg xmlns="http://www.w3.org/2000/svg" xmlns:xlink="http://www.w3.org/1999/xlink" viewBox="0 0 96 96" width="96px" height="96px">
<g id="surface58354652">
<path style=" stroke:none;fill-rule:nonzero;fill:rgb(100%,100%,100%);fill-opacity:1;" d="M 48 8 C 34.964844 8 23.394531 14.308594 16.085938 24 L 16 24 L 16 24.109375 C 11 30.785156 8 39.042969 8 48 C 8 70.042969 25.957031 88 48 88 C 70.042969 88 88 70.042969 88 48 C 88 25.957031 70.042969 8 48 8 Z M 60 18.335938 C 71.742188 23.070312 80 34.53125 80 48 C 80 56.351562 76.800781 63.914062 71.59375 69.601562 C 70.570312 66.363281 67.578125 64 64 64 C 61.792969 64 60 62.207031 60 60 L 60 52 C 60 49.792969 58.207031 48 56 48 L 40 48 C 37.792969 48 36 46.207031 36 44 C 36 41.792969 37.792969 40 40 40 C 42.207031 40 44 38.207031 44 36 L 44 32 C 44 29.792969 45.792969 28 48 28 L 52 28 C 56.421875 28 60 24.421875 60 20 Z M 16.828125 40.828125 L 36 60 L 36 64 C 36 68.421875 39.578125 72 44 72 L 44 79.726562 C 28.183594 77.765625 16 64.363281 16 48 C 16 45.527344 16.300781 43.136719 16.828125 40.828125 Z M 16.828125 40.828125 "/>
</g>
</svg>
