<?xml version="1.0" encoding="UTF-8"?>
<svg xmlns="http://www.w3.org/2000/svg" xmlns:xlink="http://www.w3.org/1999/xlink" viewBox="0 0 48 48" width="48px" height="48px">
<g id="surface26940182">
<path style=" stroke:none;fill-rule:nonzero;fill:rgb(100%,100%,100%);fill-opacity:1;" d="M 24 4 C 20.796875 4 18.203125 6.625 18 9.625 L 30 21.625 L 30 10 C 30 6.601562 27.398438 4 24 4 Z M 6.875 4.0625 L 4.0625 6.875 L 18 20.8125 L 18 24 C 18 27.398438 20.601562 30 24 30 C 24.929688 30 25.789062 29.75 26.5625 29.375 L 29.4375 32.25 C 27.867188 33.3125 26.023438 34 24 34 C 18.398438 34 14 29.601562 14 24 L 10 24 C 10 31 15.203125 36.8125 22 37.8125 L 22 44 L 26 44 L 26 37.8125 C 28.375 37.4375 30.5 36.507812 32.3125 35.1875 L 41.125 43.9375 L 43.9375 41.125 L 29.375 26.625 L 18 15.1875 Z M 34 24 C 34 24.601562 34.015625 24.976562 33.8125 25.375 L 37.1875 28.8125 C 37.789062 27.414062 38 25.796875 38 24 Z M 34 24 "/>
</g>
</svg>
