<?xml version="1.0" encoding="UTF-8"?>
<svg xmlns="http://www.w3.org/2000/svg" xmlns:xlink="http://www.w3.org/1999/xlink" viewBox="0 0 48 48" width="48px" height="48px">
<g id="surface24533508">
<path style=" stroke:none;fill-rule:nonzero;fill:rgb(100%,100%,100%);fill-opacity:1;" d="M 38 6 L 10 6 C 7.792969 6 6 7.792969 6 10 L 6 38 C 6 40.207031 7.792969 42 10 42 L 38 42 C 40.207031 42 42 40.207031 42 38 L 42 10 C 42 7.792969 40.207031 6 38 6 Z M 31.101562 25.546875 L 20.660156 31.511719 C 19.476562 32.191406 18 31.332031 18 29.964844 L 18 18.035156 C 18 16.664062 19.476562 15.808594 20.664062 16.488281 L 31.105469 22.453125 C 32.300781 23.136719 32.300781 24.863281 31.101562 25.546875 Z M 31.101562 25.546875 "/>
</g>
</svg>
