<?xml version="1.0" encoding="UTF-8"?>
<svg xmlns="http://www.w3.org/2000/svg" xmlns:xlink="http://www.w3.org/1999/xlink" viewBox="0 0 48 48" width="48px" height="48px">
<g id="surface194183358">
<path style=" stroke:none;fill-rule:nonzero;fill:rgb(100%,100%,100%);fill-opacity:1;" d="M 24.5 42 L 23.5 42 C 21.019531 42 19 39.980469 19 37.5 L 19 20.5 C 19 18.019531 21.019531 16 23.5 16 L 24.5 16 C 26.980469 16 29 18.019531 29 20.5 L 29 37.5 C 29 39.980469 26.980469 42 24.5 42 Z M 36.5 42 L 35.5 42 C 33.019531 42 31 39.980469 31 37.5 L 31 10.5 C 31 8.019531 33.019531 6 35.5 6 L 36.5 6 C 38.980469 6 41 8.019531 41 10.5 L 41 37.5 C 41 39.980469 38.980469 42 36.5 42 Z M 12.5 42 L 11.5 42 C 9.019531 42 7 39.980469 7 37.5 L 7 30.5 C 7 28.019531 9.019531 26 11.5 26 L 12.5 26 C 14.980469 26 17 28.019531 17 30.5 L 17 37.5 C 17 39.980469 14.980469 42 12.5 42 Z M 12.5 42 "/>
</g>
</svg>
