<?xml version="1.0" encoding="UTF-8"?>
<svg xmlns="http://www.w3.org/2000/svg" xmlns:xlink="http://www.w3.org/1999/xlink" viewBox="0 0 128 128" width="128px" height="128px">
<g id="surface214037894">
<path style=" stroke:none;fill-rule:nonzero;fill:rgb(100%,100%,100%);fill-opacity:1;" d="M 114 1 L 24 1 C 16.800781 1 11 6.800781 11 14 L 11 41.601562 C 11 60.199219 8.699219 78.800781 4.199219 96.898438 L 3.601562 99.398438 C 2.800781 102.699219 3.5 106.101562 5.601562 108.800781 C 7.699219 111.5 10.898438 113 14.300781 113 L 90.699219 113 C 97.601562 113 103.601562 108.300781 105.300781 101.601562 L 106.101562 98.300781 C 110.699219 79.800781 113.101562 60.699219 113.101562 41.601562 L 113.101562 7 L 114.101562 7 C 118 7 121.101562 10.101562 121.101562 14 L 121.101562 114 C 121.101562 117.898438 118 121 114.101562 121 L 24 121 C 22.300781 121 21 122.300781 21 124 C 21 125.699219 22.300781 127 24 127 L 114 127 C 121.199219 127 127 121.199219 127 114 L 127 14 C 127 6.800781 121.199219 1 114 1 Z M 78.300781 69.199219 C 77.601562 70.699219 75.800781 71.300781 74.300781 70.601562 C 73.800781 70.398438 73.398438 70.199219 73.101562 70.199219 C 72 70.101562 70.5 71.5 69 73 C 67 74.898438 64.800781 77.101562 61.601562 77.398438 C 61.300781 77.398438 61 77.398438 60.800781 77.398438 C 56.398438 77.398438 53.398438 73.601562 50.699219 70.300781 C 49.398438 68.601562 47.398438 66.199219 46.199219 65.898438 C 45.398438 66.601562 44 68.601562 42.800781 70.300781 C 41.898438 71.5 40.898438 72.898438 39.800781 74.300781 C 38.800781 75.601562 36.898438 75.800781 35.601562 74.800781 C 34.300781 73.800781 34.101562 71.898438 35.101562 70.601562 C 36.101562 69.300781 37.101562 67.898438 38 66.699219 C 41.101562 62.5 42.699219 60.199219 45.199219 59.898438 C 49.699219 59.300781 52.699219 63.101562 55.398438 66.5 C 57.199219 68.699219 59.5 71.5 61 71.398438 C 62.101562 71.300781 63.5 69.898438 64.898438 68.601562 C 67.101562 66.5 69.898438 63.800781 73.800781 64.199219 C 74.898438 64.300781 76 64.601562 77.101562 65.199219 C 78.5 65.898438 79.101562 67.699219 78.300781 69.199219 Z M 86 77 C 84.300781 77 83 75.699219 83 74 C 83 72.300781 84.300781 71 86 71 C 87.699219 71 89 72.300781 89 74 C 89 75.699219 87.699219 77 86 77 Z M 86 77 "/>
</g>
</svg>
