<?xml version="1.0" encoding="UTF-8"?>
<svg xmlns="http://www.w3.org/2000/svg" xmlns:xlink="http://www.w3.org/1999/xlink" viewBox="0 0 47 47" width="47px" height="47px">
<g id="surface26311366">
<path style=" stroke:none;fill-rule:nonzero;fill:rgb(90.196079%,29.803923%,23.529412%);fill-opacity:1;" d="M 23.5 47 C 10.542969 47 0 36.457031 0 23.5 C 0 10.542969 10.542969 0 23.5 0 C 36.457031 0 47 10.542969 47 23.5 C 47 36.457031 36.457031 47 23.5 47 Z M 23.5 47 "/>
<path style=" stroke:none;fill-rule:nonzero;fill:rgb(95.294118%,43.137255%,41.176471%);fill-opacity:1;" d="M 41.515625 24.285156 C 41.085938 24.285156 40.734375 23.933594 40.734375 23.5 C 40.734375 18.660156 38.605469 14.140625 34.734375 10.773438 C 34.410156 10.492188 34.375 9.996094 34.660156 9.667969 C 34.941406 9.34375 35.4375 9.308594 35.765625 9.59375 C 39.980469 13.261719 42.300781 18.199219 42.300781 23.5 C 42.300781 23.933594 41.949219 24.285156 41.515625 24.285156 Z M 41.515625 24.285156 "/>
<path style=" stroke:none;fill-rule:nonzero;fill:rgb(95.294118%,43.137255%,41.176471%);fill-opacity:1;" d="M 29.75 7.378906 C 29.660156 7.378906 29.566406 7.363281 29.476562 7.332031 C 27.566406 6.625 25.554688 6.265625 23.5 6.265625 C 23.066406 6.265625 22.714844 5.914062 22.714844 5.484375 C 22.714844 5.050781 23.066406 4.699219 23.5 4.699219 C 25.742188 4.699219 27.933594 5.089844 30.019531 5.859375 C 30.425781 6.011719 30.632812 6.460938 30.484375 6.867188 C 30.367188 7.183594 30.066406 7.378906 29.75 7.378906 Z M 29.75 7.378906 "/>
<path style=" stroke:none;fill-rule:nonzero;fill:rgb(95.294118%,43.137255%,41.176471%);fill-opacity:1;" d="M 11.75 37.601562 C 11.570312 37.601562 11.394531 37.539062 11.246094 37.417969 C 6.960938 33.828125 4.699219 29.015625 4.699219 23.5 C 4.699219 23.066406 5.050781 22.714844 5.484375 22.714844 C 5.914062 22.714844 6.265625 23.066406 6.265625 23.5 C 6.265625 28.539062 8.335938 32.9375 12.253906 36.214844 C 12.585938 36.492188 12.628906 36.988281 12.351562 37.320312 C 12.195312 37.503906 11.972656 37.601562 11.75 37.601562 Z M 11.75 37.601562 "/>
<path style=" stroke:none;fill-rule:nonzero;fill:rgb(95.294118%,43.137255%,41.176471%);fill-opacity:1;" d="M 23.5 42.300781 C 21.390625 42.300781 19.316406 41.953125 17.339844 41.269531 C 16.929688 41.125 16.714844 40.679688 16.855469 40.273438 C 16.996094 39.863281 17.441406 39.644531 17.851562 39.789062 C 19.664062 40.414062 21.566406 40.734375 23.5 40.734375 C 23.933594 40.734375 24.285156 41.082031 24.285156 41.515625 C 24.285156 41.949219 23.933594 42.300781 23.5 42.300781 Z M 23.5 42.300781 "/>
<path style=" stroke:none;fill-rule:nonzero;fill:rgb(100%,100%,100%);fill-opacity:1;" d="M 23.5 31.332031 C 19.179688 31.332031 15.667969 27.820312 15.667969 23.5 C 15.667969 19.179688 19.179688 15.667969 23.5 15.667969 C 27.820312 15.667969 31.332031 19.179688 31.332031 23.5 C 31.332031 27.820312 27.820312 31.332031 23.5 31.332031 Z M 23.5 31.332031 "/>
</g>
</svg>
