<?xml version="1.0" encoding="UTF-8"?>
<svg xmlns="http://www.w3.org/2000/svg" xmlns:xlink="http://www.w3.org/1999/xlink" viewBox="0 0 48 48" width="48px" height="48px">
<g id="surface34060704">
<path style=" stroke:none;fill-rule:nonzero;fill:rgb(100%,100%,100%);fill-opacity:1;" d="M 10 4 C 7.789062 4 6 5.789062 6 8 L 6 12 C 6 14.210938 7.789062 16 10 16 L 14 16 C 16.210938 16 18 14.210938 18 12 L 18 8 C 18 5.789062 16.210938 4 14 4 Z M 24 8 C 23.277344 7.988281 22.609375 8.367188 22.246094 8.992188 C 21.878906 9.613281 21.878906 10.386719 22.246094 11.007812 C 22.609375 11.632812 23.277344 12.011719 24 12 L 40 12 C 40.722656 12.011719 41.390625 11.632812 41.753906 11.007812 C 42.121094 10.386719 42.121094 9.613281 41.753906 8.992188 C 41.390625 8.367188 40.722656 7.988281 40 8 Z M 10 18 C 7.8125 18 6 19.8125 6 22 L 6 26 C 6 28.1875 7.8125 30 10 30 L 14 30 C 16.1875 30 18 28.1875 18 26 L 18 22 C 18 19.8125 16.1875 18 14 18 Z M 10 22 L 14 22 L 14 26 L 10 26 Z M 24 22 C 23.277344 21.988281 22.609375 22.367188 22.246094 22.992188 C 21.878906 23.613281 21.878906 24.386719 22.246094 25.007812 C 22.609375 25.632812 23.277344 26.011719 24 26 L 40 26 C 40.722656 26.011719 41.390625 25.632812 41.753906 25.007812 C 42.121094 24.386719 42.121094 23.613281 41.753906 22.992188 C 41.390625 22.367188 40.722656 21.988281 40 22 Z M 10 32 C 7.789062 32 6 33.789062 6 36 L 6 40 C 6 42.210938 7.789062 44 10 44 L 14 44 C 16.210938 44 18 42.210938 18 40 L 18 36 C 18 33.789062 16.210938 32 14 32 Z M 24 36 C 23.277344 35.988281 22.609375 36.367188 22.246094 36.992188 C 21.878906 37.613281 21.878906 38.386719 22.246094 39.007812 C 22.609375 39.632812 23.277344 40.011719 24 40 L 40 40 C 40.722656 40.011719 41.390625 39.632812 41.753906 39.007812 C 42.121094 38.386719 42.121094 37.613281 41.753906 36.992188 C 41.390625 36.367188 40.722656 35.988281 40 36 Z M 24 36 "/>
</g>
</svg>
