<?xml version="1.0" encoding="UTF-8"?>
<svg xmlns="http://www.w3.org/2000/svg" xmlns:xlink="http://www.w3.org/1999/xlink" viewBox="0 0 50 50" width="50px" height="50px">
<g id="surface271900580">
<path style=" stroke:none;fill-rule:nonzero;fill:rgb(100%,100%,100%);fill-opacity:1;" d="M 33.601562 42 C 29.46875 42 27 39.160156 27 34.398438 C 27 30.835938 27.472656 26.726562 28.066406 21.527344 C 28.296875 19.515625 28.546875 17.347656 28.792969 15 L 24.105469 15 L 23.871094 17.394531 C 22.117188 35.300781 21.460938 42 14.800781 42 C 12.789062 42 10 40.261719 10 37 C 10 34.574219 11.105469 33.769531 12.273438 32.917969 C 14.171875 31.535156 17.320312 29.242188 18.609375 15 L 17 15 C 14.722656 15 13.101562 16.121094 11.894531 18.53125 C 11.359375 19.402344 10.5 20.378906 8.714844 19.84375 C 8.441406 19.761719 8.21875 19.570312 8.097656 19.3125 C 7.976562 19.058594 7.96875 18.761719 8.078125 18.5 C 9.074219 16.109375 10.082031 14 11.152344 11.769531 L 11.199219 11.667969 C 12.128906 9.804688 13.957031 8 25 8 L 41 8 C 41.554688 8 42 8.449219 42 9 L 42 14 C 42 14.550781 41.554688 15 41 15 L 34.914062 15 C 33.933594 26.101562 33.609375 32.761719 34.746094 34.003906 C 34.914062 34.191406 35.175781 34.300781 36 34.300781 C 37.332031 34.300781 38.5 32.242188 38.5 31 C 38.5 30.445312 38.945312 30 39.5 30 L 41 30 C 41.554688 30 42 30.445312 42 31 C 42 38.300781 39.175781 42 33.601562 42 Z M 33.601562 42 "/>
</g>
</svg>
