<?xml version="1.0" encoding="UTF-8"?>
<svg xmlns="http://www.w3.org/2000/svg" xmlns:xlink="http://www.w3.org/1999/xlink" viewBox="0 0 48 48" width="48px" height="48px">
<g id="surface12362364">
<path style=" stroke:none;fill-rule:nonzero;fill:rgb(100%,100%,100%);fill-opacity:1;" d="M 14.5 7 C 11.46875 7 9 9.46875 9 12.5 L 9 30.5 C 9 33.53125 11.46875 36 14.5 36 L 38.5 36 C 41.53125 36 44 33.53125 44 30.5 L 44 12.5 C 44 9.46875 41.53125 7 38.5 7 Z M 7 12 L 5.78125 12.8125 C 4.667969 13.554688 4 14.804688 4 16.140625 L 4 31.5 C 4 36.746094 8.253906 41 13.5 41 L 34.859375 41 C 36.199219 41 37.445312 40.332031 38.1875 39.21875 L 39 38 L 13.5 38 C 9.910156 38 7 35.089844 7 31.5 Z M 26.5 15 C 27.328125 15 28 15.671875 28 16.5 L 28 20 L 31.5 20 C 32.328125 20 33 20.671875 33 21.5 C 33 22.328125 32.328125 23 31.5 23 L 28 23 L 28 26.5 C 28 27.328125 27.328125 28 26.5 28 C 25.671875 28 25 27.328125 25 26.5 L 25 23 L 21.5 23 C 20.671875 23 20 22.328125 20 21.5 C 20 20.671875 20.671875 20 21.5 20 L 25 20 L 25 16.5 C 25 15.671875 25.671875 15 26.5 15 Z M 26.5 15 "/>
</g>
</svg>
