<?xml version="1.0" encoding="UTF-8"?>
<svg xmlns="http://www.w3.org/2000/svg" xmlns:xlink="http://www.w3.org/1999/xlink" viewBox="0 0 90 90" width="90px" height="90px">
<g id="surface59146076">
<path style=" stroke:none;fill-rule:nonzero;fill:rgb(100%,100%,100%);fill-opacity:1;" d="M 18.429688 12 C 14.875 12 12 14.875 12 18.425781 L 12 50.570312 C 12 54.125 14.875 57 18.429688 57 L 30 57 L 30 72 C 30 75.277344 32.722656 78 36 78 L 72 78 C 75.277344 78 78 75.277344 78 72 L 78 36 C 78 32.722656 75.277344 30 72 30 L 57 30 L 57 18.425781 C 57 14.875 54.125 12 50.574219 12 Z M 18 18.808594 L 21.449219 18.808594 L 28.527344 28.371094 L 28.75 28.371094 L 28.75 18.808594 L 32.847656 18.808594 L 32.847656 30.929688 C 31.207031 31.964844 30.085938 33.757812 30.015625 35.800781 L 29.417969 35.800781 L 22.316406 26.144531 L 22.09375 26.144531 L 22.09375 35.792969 L 18 35.792969 Z M 42.320312 22.390625 C 45.9375 22.390625 48 24.035156 48 26.859375 L 48 30 L 36.421875 30 C 37.222656 28.859375 38.78125 28.183594 41.039062 28.046875 L 43.90625 27.882812 L 43.90625 26.859375 C 43.90625 25.972656 43.238281 25.445312 42.085938 25.445312 C 40.992188 25.445312 40.292969 25.816406 40.019531 26.507812 L 36.273438 26.507812 C 36.464844 23.964844 38.777344 22.386719 42.320312 22.386719 Z M 36 36 L 72 36 L 72 72 L 36 72 Z M 46.359375 49.957031 C 41.792969 49.957031 39 53.003906 39 57.972656 C 39 62.941406 41.800781 66 46.359375 66 C 50.261719 66 53.089844 63.542969 53.222656 60.0625 L 49.507812 60.0625 C 49.285156 61.695312 48.035156 62.777344 46.371094 62.777344 C 44.238281 62.777344 42.941406 60.9375 42.941406 57.96875 C 42.941406 55.003906 44.238281 53.1875 46.359375 53.1875 C 48.027344 53.1875 49.28125 54.304688 49.484375 55.957031 L 53.207031 55.957031 C 53.09375 52.511719 50.1875 49.957031 46.359375 49.957031 Z M 60.914062 53.578125 C 57.738281 53.578125 55.664062 54.992188 55.492188 57.269531 L 58.84375 57.269531 C 59.089844 56.648438 59.722656 56.320312 60.703125 56.320312 C 61.734375 56.320312 62.328125 56.792969 62.328125 57.585938 L 62.328125 58.507812 L 59.765625 58.652344 C 56.738281 58.828125 55.074219 60.074219 55.074219 62.214844 C 55.074219 64.367188 56.609375 65.773438 58.871094 65.773438 C 60.355469 65.773438 61.644531 65.140625 62.171875 64.136719 L 62.371094 64.136719 L 62.371094 65.589844 L 66 65.589844 L 66 57.585938 C 66 55.054688 64.152344 53.578125 60.914062 53.578125 Z M 62.332031 60.597656 L 62.332031 61.371094 C 62.332031 62.386719 61.414062 63.164062 60.234375 63.164062 C 59.296875 63.164062 58.675781 62.703125 58.675781 61.953125 C 58.675781 61.246094 59.25 60.8125 60.359375 60.726562 Z M 62.332031 60.597656 "/>
</g>
</svg>
