<?xml version="1.0" encoding="UTF-8"?>
<svg xmlns="http://www.w3.org/2000/svg" xmlns:xlink="http://www.w3.org/1999/xlink" viewBox="0 0 50 50" width="50px" height="50px">
<g id="surface46349181">
<path style=" stroke:none;fill-rule:nonzero;fill:rgb(100%,100%,100%);fill-opacity:1;" d="M 13.332031 5 C 11.492188 5 10 6.492188 10 8.332031 L 10 41.667969 C 10 43.507812 11.492188 45 13.332031 45 L 36.667969 45 C 38.507812 45 40 43.507812 40 41.667969 L 40 26.667969 L 25.691406 26.667969 L 29.511719 30.488281 C 30.164062 31.140625 30.164062 32.195312 29.511719 32.84375 C 29.1875 33.171875 28.761719 33.332031 28.332031 33.332031 C 27.90625 33.332031 27.480469 33.171875 27.15625 32.84375 L 20.488281 26.179688 C 19.835938 25.527344 19.835938 24.472656 20.488281 23.820312 L 27.15625 17.15625 C 27.804688 16.503906 28.859375 16.503906 29.511719 17.15625 C 30.164062 17.804688 30.164062 18.859375 29.511719 19.511719 L 25.691406 23.332031 L 40 23.332031 L 40 15.832031 C 40 15.390625 39.824219 14.964844 39.511719 14.65625 L 30.34375 5.488281 C 30.03125 5.175781 29.609375 5 29.167969 5 Z M 40 23.332031 L 40 26.667969 L 46.667969 26.667969 C 47.585938 26.667969 48.332031 25.921875 48.332031 25 C 48.332031 24.078125 47.585938 23.332031 46.667969 23.332031 Z M 40 23.332031 "/>
</g>
</svg>
