<?xml version="1.0" encoding="UTF-8"?>
<svg xmlns="http://www.w3.org/2000/svg" xmlns:xlink="http://www.w3.org/1999/xlink" viewBox="0 0 50 50" width="50px" height="50px">
<g id="surface20439783">
<path style=" stroke:none;fill-rule:nonzero;fill:rgb(100%,100%,100%);fill-opacity:1;" d="M 24.328125 4.546875 C 23.449219 4.625 22.667969 5.265625 22.457031 6.191406 L 21.300781 11.289062 L 15.652344 17.5625 C 14.964844 18.328125 14.582031 19.320312 14.582031 20.347656 L 14.582031 39.582031 C 14.582031 41.886719 16.449219 43.75 18.75 43.75 L 35.480469 43.75 C 37.027344 43.75 38.421875 42.839844 39.050781 41.429688 L 45.304688 27.355469 C 45.652344 26.578125 45.832031 25.730469 45.832031 24.878906 L 45.832031 22.917969 C 45.832031 20.625 43.957031 18.75 41.667969 18.75 L 27.082031 18.75 C 27.082031 18.75 29.167969 13.8125 29.167969 10.132812 C 29.167969 6.769531 27.003906 5.300781 25.222656 4.660156 C 24.925781 4.550781 24.621094 4.519531 24.328125 4.546875 Z M 7.292969 18.75 C 5.566406 18.75 4.167969 20.148438 4.167969 21.875 L 4.167969 40.625 C 4.167969 42.351562 5.566406 43.75 7.292969 43.75 C 9.015625 43.75 10.417969 42.351562 10.417969 40.625 L 10.417969 21.875 C 10.417969 20.148438 9.015625 18.75 7.292969 18.75 Z M 7.292969 18.75 "/>
</g>
</svg>
