<?xml version="1.0" encoding="UTF-8"?>
<svg xmlns="http://www.w3.org/2000/svg" xmlns:xlink="http://www.w3.org/1999/xlink" viewBox="0 0 128 128" width="128px" height="128px">
<g id="surface54713383">
<path style=" stroke:none;fill-rule:nonzero;fill:rgb(100%,100%,100%);fill-opacity:1;" d="M 57.46875 11.753906 L 57.46875 15.671875 L 69.222656 15.671875 L 69.222656 11.753906 Z M 16.328125 19.59375 C 13.082031 19.59375 10.449219 22.222656 10.449219 25.46875 L 10.449219 88.164062 C 10.449219 91.410156 13.082031 94.039062 16.328125 94.039062 L 41.273438 94.039062 L 27.820312 110.496094 C 26.894531 111.582031 27.007812 113.210938 28.082031 114.15625 C 28.539062 114.59375 29.148438 114.828125 29.78125 114.808594 C 30.546875 114.863281 31.289062 114.515625 31.738281 113.894531 L 47.671875 94.433594 L 47.933594 94.039062 L 61.386719 94.039062 L 61.386719 114.679688 C 61.386719 116.121094 62.558594 117.289062 64 117.289062 C 65.441406 117.289062 66.613281 116.121094 66.613281 114.679688 L 66.613281 94.039062 L 80.066406 94.039062 L 80.328125 94.433594 L 96.261719 113.894531 C 96.710938 114.515625 97.453125 114.863281 98.21875 114.808594 C 98.851562 114.828125 99.460938 114.59375 99.917969 114.15625 C 100.992188 113.210938 101.105469 111.582031 100.179688 110.496094 L 86.726562 94.039062 L 111.671875 94.039062 C 114.917969 94.039062 117.550781 91.410156 117.550781 88.164062 L 117.550781 25.46875 C 117.550781 22.222656 114.917969 19.59375 111.671875 19.59375 Z M 18.9375 24.816406 L 110.367188 24.816406 C 111.449219 24.816406 112.328125 25.695312 112.328125 26.777344 L 112.328125 88.164062 C 112.328125 89.246094 111.449219 90.121094 110.367188 90.121094 L 18.9375 90.121094 C 17.855469 90.121094 16.980469 89.246094 16.980469 88.164062 L 16.980469 26.777344 C 16.980469 25.695312 17.855469 24.816406 18.9375 24.816406 Z M 20.898438 28.734375 L 20.898438 86.203125 L 107.101562 86.203125 L 107.101562 28.734375 Z M 37.222656 45.585938 C 37.929688 45.621094 38.570312 46.015625 38.921875 46.628906 L 47.414062 63.605469 C 47.699219 64.242188 47.648438 64.976562 47.28125 65.566406 C 47.015625 66.199219 46.398438 66.613281 45.714844 66.613281 L 28.734375 66.613281 C 28.011719 66.628906 27.34375 66.21875 27.035156 65.566406 C 26.667969 64.976562 26.621094 64.242188 26.90625 63.605469 L 35.394531 46.628906 C 35.773438 45.976562 36.472656 45.578125 37.222656 45.585938 Z M 64 45.585938 C 69.769531 45.585938 74.449219 50.261719 74.449219 56.03125 C 74.449219 61.824219 69.792969 66.539062 64 66.613281 C 58.644531 66.011719 54.597656 61.484375 54.597656 56.097656 C 54.597656 50.710938 58.644531 46.183594 64 45.585938 Z M 82.9375 45.714844 L 99.917969 45.714844 C 101 45.714844 101.878906 46.589844 101.878906 47.671875 L 101.878906 64.652344 C 101.878906 65.734375 101 66.613281 99.917969 66.613281 L 82.9375 66.613281 C 81.855469 66.613281 80.980469 65.734375 80.980469 64.652344 L 80.980469 47.671875 C 80.980469 46.589844 81.855469 45.714844 82.9375 45.714844 Z M 63.871094 49.378906 C 60.296875 49.515625 57.46875 52.453125 57.46875 56.03125 C 57.433594 57.789062 58.105469 59.480469 59.335938 60.734375 C 60.5625 61.988281 62.246094 62.695312 64 62.695312 C 66.425781 62.742188 68.683594 61.464844 69.898438 59.363281 C 71.109375 57.265625 71.085938 54.671875 69.832031 52.59375 C 68.578125 50.515625 66.296875 49.285156 63.871094 49.378906 Z M 84.898438 49.632812 L 84.898438 62.695312 L 97.960938 62.695312 L 97.960938 49.632812 Z M 37.222656 52.113281 L 31.871094 62.695312 L 42.449219 62.695312 Z M 37.222656 52.113281 "/>
</g>
</svg>
