<?xml version="1.0" encoding="UTF-8"?>
<svg xmlns="http://www.w3.org/2000/svg" xmlns:xlink="http://www.w3.org/1999/xlink" viewBox="0 0 30 30" width="30px" height="30px">
<g id="surface196794128">
<path style=" stroke:none;fill-rule:nonzero;fill:rgb(100%,23.921569%,16.078432%);fill-opacity:1;" d="M 15 3 C 14.167969 3 13.457031 3.507812 13.15625 4.230469 L 2.300781 22.949219 L 2.304688 22.953125 C 2.113281 23.257812 2 23.613281 2 24 C 2 25.105469 2.894531 26 4 26 C 4.046875 26 4.089844 25.988281 4.136719 25.984375 L 4.144531 26 L 25.855469 26 L 25.863281 25.984375 C 25.910156 25.988281 25.953125 26 26 26 C 27.105469 26 28 25.105469 28 24 C 28 23.613281 27.886719 23.257812 27.699219 22.953125 L 27.699219 22.949219 L 16.847656 4.230469 C 16.542969 3.507812 15.832031 3 15 3 Z M 13.785156 11.359375 L 16.214844 11.359375 L 16.011719 17.832031 L 13.988281 17.832031 Z M 15.003906 19.8125 C 15.824219 19.8125 16.316406 20.253906 16.316406 21.007812 C 16.316406 21.75 15.824219 22.1875 15.003906 22.1875 C 14.175781 22.1875 13.679688 21.75 13.679688 21.007812 C 13.679688 20.253906 14.175781 19.8125 15.003906 19.8125 Z M 15.003906 19.8125 "/>
</g>
</svg>
