<?xml version="1.0" encoding="UTF-8"?>
<svg xmlns="http://www.w3.org/2000/svg" xmlns:xlink="http://www.w3.org/1999/xlink" viewBox="0 0 48 48" width="48px" height="48px">
<g id="surface34170808">
<path style=" stroke:none;fill-rule:nonzero;fill:rgb(100%,100%,100%);fill-opacity:1;" d="M 24 6 C 19.582031 6 16 9.582031 16 14 C 16 18.417969 19.582031 22 24 22 C 28.417969 22 32 18.417969 32 14 C 32 9.582031 28.417969 6 24 6 Z M 24 28 C 17.992188 28 6 31.015625 6 37 L 6 40 C 6 41.105469 6.894531 42 8 42 L 40 42 C 41.105469 42 42 41.105469 42 40 L 42 37 C 42 31.015625 30.007812 28 24 28 Z M 24 28 "/>
</g>
</svg>
