<?xml version="1.0" encoding="UTF-8"?>
<svg xmlns="http://www.w3.org/2000/svg" xmlns:xlink="http://www.w3.org/1999/xlink" viewBox="0 0 60 60" width="60px" height="60px">
<g id="surface26317082">
<path style=" stroke:none;fill-rule:nonzero;fill:rgb(90.588236%,29.803923%,23.529412%);fill-opacity:1;" d="M 30 4 C 22.292969 4 16 10.292969 16 18 L 16 22 L 12 22 C 9.789062 22 8 23.789062 8 26 L 8 50 C 8 52.210938 9.789062 54 12 54 L 22.828125 54 C 21.796875 52.644531 21.160156 51.5625 20.917969 51.121094 C 20.308594 50.144531 20 49.09375 20 48 C 20 46.855469 20.335938 45.757812 21.007812 44.738281 C 21.648438 43.734375 29.414062 32 42 32 C 45.796875 32 49.144531 33.074219 52 34.59375 L 52 26 C 52 23.789062 50.210938 22 48 22 L 44 22 L 44 18 C 44 10.542969 38.074219 4.539062 30.710938 4.144531 C 30.484375 4.054688 30.242188 4.003906 30 4 Z M 30 8 C 35.546875 8 40 12.453125 40 18 L 40 22 L 20 22 L 20 18 C 20 12.453125 24.453125 8 30 8 Z M 42 36 C 31.199219 36 24.363281 46.914062 24.363281 46.914062 C 24.152344 47.230469 24 47.589844 24 48 C 24 48.410156 24.15625 48.773438 24.367188 49.089844 C 24.367188 49.089844 30 60 42 60 C 54 60 59.628906 49.09375 59.628906 49.09375 C 59.84375 48.777344 60 48.414062 60 48 C 60 47.589844 59.847656 47.226562 59.632812 46.910156 C 59.632812 46.910156 52.800781 36 42 36 Z M 42 40 C 46.417969 40 50 43.582031 50 48 C 50 52.417969 46.417969 56 42 56 C 37.582031 56 34 52.417969 34 48 C 34 43.582031 37.582031 40 42 40 Z M 42 44 C 39.789062 44 38 45.789062 38 48 C 38 50.210938 39.789062 52 42 52 C 44.210938 52 46 50.210938 46 48 C 46 45.789062 44.210938 44 42 44 Z M 42 44 "/>
</g>
</svg>
