<?xml version="1.0" encoding="UTF-8"?>
<svg xmlns="http://www.w3.org/2000/svg" xmlns:xlink="http://www.w3.org/1999/xlink" viewBox="0 0 64 64" width="64px" height="64px">
<g id="surface26144842">
<path style=" stroke:none;fill-rule:nonzero;fill:rgb(100%,100%,100%);fill-opacity:1;" d="M 57 0.5 L 12 0.5 C 8.398438 0.5 5.5 3.398438 5.5 7 L 5.5 20.800781 C 5.5 30.101562 4.351562 39.398438 2.101562 48.449219 L 1.800781 49.699219 C 1.398438 51.351562 1.75 53.050781 2.800781 54.398438 C 3.851562 55.75 5.449219 56.5 7.148438 56.5 L 45.351562 56.5 C 48.800781 56.5 51.800781 54.148438 52.648438 50.800781 L 53.050781 49.148438 C 55.351562 39.898438 56.550781 30.351562 56.550781 20.800781 L 56.550781 3.5 L 57.050781 3.5 C 59 3.5 60.550781 5.050781 60.550781 7 L 60.550781 57 C 60.550781 58.949219 59 60.5 57.050781 60.5 L 12 60.5 C 11.148438 60.5 10.5 61.148438 10.5 62 C 10.5 62.851562 11.148438 63.5 12 63.5 L 57 63.5 C 60.601562 63.5 63.5 60.601562 63.5 57 L 63.5 7 C 63.5 3.398438 60.601562 0.5 57 0.5 Z M 39.148438 34.601562 C 38.800781 35.351562 37.898438 35.648438 37.148438 35.300781 C 36.898438 35.199219 36.699219 35.101562 36.550781 35.101562 C 36 35.050781 35.25 35.75 34.5 36.5 C 33.5 37.449219 32.398438 38.550781 30.800781 38.699219 C 30.648438 38.699219 30.5 38.699219 30.398438 38.699219 C 28.199219 38.699219 26.699219 36.800781 25.351562 35.148438 C 24.699219 34.300781 23.699219 33.101562 23.101562 32.949219 C 22.699219 33.300781 22 34.300781 21.398438 35.148438 C 20.949219 35.75 20.449219 36.449219 19.898438 37.148438 C 19.398438 37.800781 18.449219 37.898438 17.800781 37.398438 C 17.148438 36.898438 17.050781 35.949219 17.550781 35.300781 C 18.050781 34.648438 18.550781 33.949219 19 33.351562 C 20.550781 31.25 21.351562 30.101562 22.601562 29.949219 C 24.851562 29.648438 26.351562 31.550781 27.699219 33.25 C 28.601562 34.351562 29.75 35.75 30.5 35.699219 C 31.050781 35.648438 31.75 34.949219 32.449219 34.300781 C 33.550781 33.25 34.949219 31.898438 36.898438 32.101562 C 37.449219 32.148438 38 32.300781 38.550781 32.601562 C 39.25 32.949219 39.550781 33.851562 39.148438 34.601562 Z M 43 38.5 C 42.148438 38.5 41.5 37.851562 41.5 37 C 41.5 36.148438 42.148438 35.5 43 35.5 C 43.851562 35.5 44.5 36.148438 44.5 37 C 44.5 37.851562 43.851562 38.5 43 38.5 Z M 43 38.5 "/>
</g>
</svg>
