<?xml version="1.0" encoding="UTF-8"?>
<svg xmlns="http://www.w3.org/2000/svg" xmlns:xlink="http://www.w3.org/1999/xlink" viewBox="0 0 50 50" width="50px" height="50px">
<g id="surface271863385">
<path style=" stroke:none;fill-rule:nonzero;fill:rgb(100%,100%,100%);fill-opacity:1;" d="M 37 4.003906 C 34.695312 4.003906 32.390625 4.882812 30.636719 6.636719 L 25.636719 11.636719 C 23.144531 14.128906 22.429688 17.726562 23.480469 20.863281 L 27.070312 17.273438 C 27.21875 16.246094 27.675781 15.253906 28.464844 14.464844 L 33.464844 9.464844 C 34.4375 8.492188 35.71875 8.003906 37 8.003906 C 38.28125 8.003906 39.5625 8.488281 40.535156 9.464844 C 42.484375 11.414062 42.484375 14.585938 40.535156 16.535156 L 35.535156 21.535156 C 34.746094 22.324219 33.757812 22.777344 32.730469 22.929688 L 29.136719 26.523438 C 30.0625 26.832031 31.027344 26.996094 32 26.996094 C 34.304688 26.996094 36.609375 26.117188 38.363281 24.363281 L 43.363281 19.363281 C 46.875 15.855469 46.871094 10.144531 43.363281 6.636719 C 41.609375 4.882812 39.304688 4.003906 37 4.003906 Z M 30.960938 16.980469 C 30.441406 16.996094 29.949219 17.214844 29.585938 17.585938 L 17.585938 29.585938 C 17.0625 30.085938 16.851562 30.832031 17.035156 31.535156 C 17.21875 32.234375 17.765625 32.78125 18.464844 32.964844 C 19.167969 33.148438 19.914062 32.9375 20.414062 32.414062 L 32.414062 20.414062 C 33.003906 19.839844 33.183594 18.960938 32.863281 18.199219 C 32.539062 17.441406 31.785156 16.957031 30.960938 16.980469 Z M 18.449219 23.023438 C 15.996094 22.898438 13.507812 23.765625 11.636719 25.636719 L 6.636719 30.636719 C 3.128906 34.144531 3.128906 39.855469 6.636719 43.363281 C 8.390625 45.117188 10.695312 45.996094 13 45.996094 C 15.304688 45.996094 17.609375 45.117188 19.363281 43.363281 L 24.363281 38.363281 C 26.855469 35.871094 27.570312 32.269531 26.523438 29.136719 L 22.929688 32.730469 C 22.777344 33.753906 22.324219 34.746094 21.535156 35.535156 L 16.535156 40.535156 C 14.585938 42.484375 11.414062 42.484375 9.464844 40.535156 C 7.515625 38.585938 7.515625 35.414062 9.464844 33.464844 L 14.464844 28.464844 C 15.253906 27.675781 16.246094 27.222656 17.273438 27.070312 L 20.863281 23.480469 C 20.078125 23.214844 19.265625 23.066406 18.449219 23.023438 Z M 18.449219 23.023438 "/>
</g>
</svg>
