<?xml version="1.0" encoding="UTF-8"?>
<svg xmlns="http://www.w3.org/2000/svg" xmlns:xlink="http://www.w3.org/1999/xlink" viewBox="0 0 48 48" width="48px" height="48px">
<g id="surface19062583">
<path style=" stroke:none;fill-rule:nonzero;fill:rgb(100%,100%,100%);fill-opacity:1;" d="M 38.5 7 L 9.5 7 C 6.46875 7 4 9.46875 4 12.5 L 4 35.5 C 4 38.53125 6.46875 41 9.5 41 L 38.5 41 C 41.53125 41 44 38.53125 44 35.5 L 44 12.5 C 44 9.46875 41.53125 7 38.5 7 Z M 25.5 12 C 25.5 11.449219 25.949219 11 26.5 11 L 27.5 11 C 28.050781 11 28.5 11.449219 28.5 12 L 28.5 13 C 28.5 13.550781 28.050781 14 27.5 14 L 26.5 14 C 25.949219 14 25.5 13.550781 25.5 13 Z M 19.5 12 C 19.5 11.449219 19.949219 11 20.5 11 L 21.5 11 C 22.050781 11 22.5 11.449219 22.5 12 L 22.5 13 C 22.5 13.550781 22.050781 14 21.5 14 L 20.5 14 C 19.949219 14 19.5 13.550781 19.5 13 Z M 10.5 36 C 10.5 36.550781 10.050781 37 9.5 37 L 8.5 37 C 7.949219 37 7.5 36.550781 7.5 36 L 7.5 35 C 7.5 34.449219 7.949219 34 8.5 34 L 9.5 34 C 10.050781 34 10.5 34.449219 10.5 35 Z M 10.5 13 C 10.5 13.550781 10.050781 14 9.5 14 L 8.5 14 C 7.949219 14 7.5 13.550781 7.5 13 L 7.5 12 C 7.5 11.449219 7.949219 11 8.5 11 L 9.5 11 C 10.050781 11 10.5 11.449219 10.5 12 Z M 16.5 36 C 16.5 36.550781 16.050781 37 15.5 37 L 14.5 37 C 13.949219 37 13.5 36.550781 13.5 36 L 13.5 35 C 13.5 34.449219 13.949219 34 14.5 34 L 15.5 34 C 16.050781 34 16.5 34.449219 16.5 35 Z M 16.5 13 C 16.5 13.550781 16.050781 14 15.5 14 L 14.5 14 C 13.949219 14 13.5 13.550781 13.5 13 L 13.5 12 C 13.5 11.449219 13.949219 11 14.5 11 L 15.5 11 C 16.050781 11 16.5 11.449219 16.5 12 Z M 22.5 36 C 22.5 36.550781 22.050781 37 21.5 37 L 20.5 37 C 19.949219 37 19.5 36.550781 19.5 36 L 19.5 35 C 19.5 34.449219 19.949219 34 20.5 34 L 21.5 34 C 22.050781 34 22.5 34.449219 22.5 35 Z M 28.5 36 C 28.5 36.550781 28.050781 37 27.5 37 L 26.5 37 C 25.949219 37 25.5 36.550781 25.5 36 L 25.5 35 C 25.5 34.449219 25.949219 34 26.5 34 L 27.5 34 C 28.050781 34 28.5 34.449219 28.5 35 Z M 29.113281 25.523438 L 21.613281 29.773438 C 21.34375 29.925781 21.046875 30 20.75 30 C 20.445312 30 20.140625 29.921875 19.867188 29.761719 C 19.332031 29.449219 19 28.871094 19 28.25 L 19 19.75 C 19 19.128906 19.332031 18.550781 19.867188 18.238281 C 20.40625 17.925781 21.070312 17.921875 21.613281 18.226562 L 29.113281 22.476562 C 29.660156 22.789062 30 23.371094 30 24 C 30 24.628906 29.660156 25.210938 29.113281 25.523438 Z M 34.5 36 C 34.5 36.550781 34.050781 37 33.5 37 L 32.5 37 C 31.949219 37 31.5 36.550781 31.5 36 L 31.5 35 C 31.5 34.449219 31.949219 34 32.5 34 L 33.5 34 C 34.050781 34 34.5 34.449219 34.5 35 Z M 34.5 13 C 34.5 13.550781 34.050781 14 33.5 14 L 32.5 14 C 31.949219 14 31.5 13.550781 31.5 13 L 31.5 12 C 31.5 11.449219 31.949219 11 32.5 11 L 33.5 11 C 34.050781 11 34.5 11.449219 34.5 12 Z M 40.5 36 C 40.5 36.550781 40.050781 37 39.5 37 L 38.5 37 C 37.949219 37 37.5 36.550781 37.5 36 L 37.5 35 C 37.5 34.449219 37.949219 34 38.5 34 L 39.5 34 C 40.050781 34 40.5 34.449219 40.5 35 Z M 40.5 13 C 40.5 13.550781 40.050781 14 39.5 14 L 38.5 14 C 37.949219 14 37.5 13.550781 37.5 13 L 37.5 12 C 37.5 11.449219 37.949219 11 38.5 11 L 39.5 11 C 40.050781 11 40.5 11.449219 40.5 12 Z M 40.5 13 "/>
</g>
</svg>
