<?xml version="1.0" encoding="UTF-8"?>
<svg xmlns="http://www.w3.org/2000/svg" xmlns:xlink="http://www.w3.org/1999/xlink" viewBox="0 0 50 50" width="50px" height="50px">
<g id="surface271901745">
<path style=" stroke:none;fill-rule:nonzero;fill:rgb(100%,100%,100%);fill-opacity:1;" d="M 12.875 0 C 10.941406 0 9.375 1.566406 9.375 3.5 C 9.375 5.285156 10.710938 6.753906 12.4375 6.96875 L 14.875 11.4375 C 14.640625 11.90625 14.5 12.441406 14.5 13 C 14.5 13.757812 14.746094 14.457031 15.15625 15.03125 L 11.625 21.53125 C 10.589844 21.640625 9.6875 22.1875 9.125 23 L 6.375 23 C 5.742188 22.089844 4.691406 21.5 3.5 21.5 C 1.84375 21.5 0.457031 22.640625 0.09375 24.1875 C 0.0859375 24.21875 0.0703125 24.25 0.0625 24.28125 C -0.148438 24.808594 -0.125 25.398438 0.125 25.90625 C 0.523438 27.402344 1.878906 28.5 3.5 28.5 C 4.691406 28.5 5.742188 27.910156 6.375 27 L 9.125 27 C 9.6875 27.8125 10.589844 28.359375 11.625 28.46875 L 15.125 34.96875 C 14.722656 35.539062 14.5 36.25 14.5 37 C 14.5 37.546875 14.648438 38.070312 14.875 38.53125 L 12.40625 43.03125 C 10.691406 43.257812 9.375 44.722656 9.375 46.5 C 9.375 48.433594 10.941406 50 12.875 50 C 14.808594 50 16.375 48.433594 16.375 46.5 C 16.375 45.925781 16.214844 45.382812 15.96875 44.90625 L 18.375 40.46875 C 19.410156 40.359375 20.308594 39.8125 20.875 39 L 29.125 39 C 29.695312 39.820312 30.605469 40.367188 31.65625 40.46875 L 34.25 45 C 34.800781 45.964844 36.035156 46.300781 37 45.75 C 37.964844 45.199219 38.300781 43.964844 37.75 43 L 35.15625 38.46875 C 35.363281 38.023438 35.5 37.523438 35.5 37 C 35.5 36.242188 35.253906 35.542969 34.84375 34.96875 L 38.375 28.46875 C 39.410156 28.359375 40.308594 27.8125 40.875 27 L 43.625 27 C 44.257812 27.910156 45.308594 28.5 46.5 28.5 C 48.242188 28.5 49.671875 27.230469 49.9375 25.5625 C 50.058594 25.175781 50.058594 24.761719 49.9375 24.375 C 49.644531 22.734375 48.222656 21.5 46.5 21.5 C 45.308594 21.5 44.257812 22.089844 43.625 23 L 40.875 23 C 40.308594 22.1875 39.410156 21.640625 38.375 21.53125 L 34.875 15.03125 C 35.277344 14.460938 35.5 13.75 35.5 13 C 35.5 12.453125 35.351562 11.929688 35.125 11.46875 L 37.59375 6.96875 C 38.832031 6.835938 39.867188 6.078125 40.375 5 L 48 5 C 48.722656 5.011719 49.390625 4.632812 49.753906 4.007812 C 50.121094 3.386719 50.121094 2.613281 49.753906 1.992188 C 49.390625 1.367188 48.722656 0.988281 48 1 L 39.65625 1 C 39.027344 0.386719 38.167969 0 37.21875 0 C 35.285156 0 33.71875 1.566406 33.71875 3.5 C 33.71875 4.035156 33.847656 4.546875 34.0625 5 L 31.625 9.53125 C 30.589844 9.640625 29.691406 10.1875 29.125 11 L 20.84375 11 C 20.277344 10.199219 19.402344 9.640625 18.375 9.53125 L 15.96875 5.125 C 16.222656 4.640625 16.375 4.082031 16.375 3.5 C 16.375 1.566406 14.808594 0 12.875 0 Z M 20.875 15 L 29.125 15 C 29.585938 15.664062 30.261719 16.15625 31.0625 16.375 L 34.875 23.40625 C 34.632812 23.882812 34.5 24.429688 34.5 25 C 34.5 25.570312 34.632812 26.117188 34.875 26.59375 L 31.0625 33.625 C 30.261719 33.84375 29.585938 34.335938 29.125 35 L 20.875 35 C 20.414062 34.335938 19.738281 33.84375 18.9375 33.625 L 15.125 26.59375 C 15.367188 26.117188 15.5 25.570312 15.5 25 C 15.5 24.429688 15.367188 23.882812 15.125 23.40625 L 18.9375 16.375 C 19.738281 16.15625 20.414062 15.664062 20.875 15 Z M 20.875 15 "/>
</g>
</svg>
