<?xml version="1.0" encoding="UTF-8"?>
<svg xmlns="http://www.w3.org/2000/svg" xmlns:xlink="http://www.w3.org/1999/xlink" viewBox="0 0 30 30" width="30px" height="30px">
<g id="surface196810460">
<path style=" stroke:none;fill-rule:nonzero;fill:rgb(30.19608%,100%,16.078432%);fill-opacity:1;" d="M 24.820312 10.933594 C 25.507812 7.511719 22.488281 4.492188 19.066406 5.179688 C 17.136719 2.273438 12.863281 2.273438 10.933594 5.179688 C 7.511719 4.492188 4.492188 7.511719 5.179688 10.933594 C 2.273438 12.863281 2.273438 17.136719 5.179688 19.066406 C 4.492188 22.488281 7.511719 25.507812 10.933594 24.820312 C 12.863281 27.726562 17.136719 27.726562 19.066406 24.820312 C 22.488281 25.507812 25.507812 22.488281 24.820312 19.066406 C 27.726562 17.136719 27.726562 12.863281 24.820312 10.933594 Z M 21.707031 11.707031 L 14.148438 19.265625 C 13.960938 19.453125 13.703125 19.558594 13.441406 19.558594 C 13.175781 19.558594 12.921875 19.453125 12.734375 19.265625 L 9.28125 15.8125 C 8.890625 15.421875 8.890625 14.789062 9.28125 14.398438 C 9.671875 14.007812 10.304688 14.007812 10.695312 14.398438 L 13.441406 17.144531 L 20.292969 10.292969 C 20.683594 9.902344 21.316406 9.902344 21.707031 10.292969 C 22.097656 10.683594 22.097656 11.316406 21.707031 11.707031 Z M 21.707031 11.707031 "/>
</g>
</svg>
