<?xml version="1.0" encoding="UTF-8"?>
<svg xmlns="http://www.w3.org/2000/svg" xmlns:xlink="http://www.w3.org/1999/xlink" viewBox="0 0 120 120" width="120px" height="120px">
<g id="surface64719692">
<path style=" stroke:none;fill-rule:nonzero;fill:rgb(100%,100%,100%);fill-opacity:1;" d="M 102.332031 87.449219 C 101.558594 88.234375 101.566406 89.5 102.355469 90.277344 C 103.707031 91.605469 105.222656 92.675781 106.878906 93.464844 C 106.007812 94.953125 104.734375 95.875 103.292969 96.226562 C 102.472656 96.425781 101.839844 97.097656 101.765625 97.9375 C 101.648438 99.226562 102.636719 100.171875 103.753906 100.171875 C 104.226562 100.171875 105.0625 99.882812 105.496094 99.710938 C 108.371094 98.570312 109.929688 96.375 110.726562 94.742188 C 112.765625 95.144531 114.933594 95.160156 117.160156 94.761719 C 118.46875 94.527344 119.636719 95.601562 119.511719 96.925781 C 119.394531 98.144531 119.257812 99.367188 119.101562 100.589844 C 118.441406 105.707031 113.910156 109.535156 108.78125 109.3125 C 95.007812 108.71875 88.609375 118.878906 75.074219 114.164062 C 71.902344 113.058594 69.519531 110.433594 68.699219 107.140625 C 67.003906 100.34375 65.769531 93.484375 64.988281 86.621094 C 64.859375 85.476562 65.71875 84.460938 66.867188 84.394531 C 71.789062 84.117188 76.054688 82.109375 79.101562 78.886719 C 80.460938 78.984375 81.792969 79.269531 83.078125 79.730469 C 85.183594 80.484375 85.308594 80.972656 86.238281 80.972656 C 86.941406 80.972656 87.621094 80.601562 87.988281 79.945312 C 88.523438 78.976562 88.171875 77.757812 87.207031 77.222656 C 85.4375 76.246094 83.585938 75.585938 81.785156 75.226562 C 82.863281 73.292969 83.410156 71.488281 83.6875 70.277344 C 83.9375 69.203125 83.265625 68.128906 82.1875 67.882812 C 81.109375 67.632812 80.035156 68.308594 79.792969 69.382812 C 78.335938 75.714844 73.238281 80.105469 66.386719 80.40625 C 65.285156 80.457031 64.347656 79.625 64.28125 78.523438 C 63.875 71.933594 63.898438 65.539062 64.285156 59.414062 C 64.375 57.976562 65.917969 57.113281 67.199219 57.765625 C 67.703125 58.023438 67.765625 58.070312 70.25 59.519531 C 71.210938 60.078125 72.433594 59.75 72.988281 58.800781 C 73.542969 57.84375 73.222656 56.621094 72.265625 56.0625 C 69.65625 54.539062 69.503906 54.4375 68.738281 54.0625 C 68.738281 54.027344 66.621094 53.078125 65.128906 52.707031 C 61.441406 51.683594 57.054688 51.773438 52.933594 53.335938 C 50.929688 54.105469 49.738281 54.894531 47.734375 56.0625 C 46.773438 56.625 46.457031 57.847656 47.011719 58.800781 C 47.570312 59.753906 48.796875 60.078125 49.746094 59.519531 C 51.816406 58.308594 52.230469 58.058594 52.796875 57.769531 C 54.082031 57.113281 55.621094 57.980469 55.710938 59.417969 C 56.109375 65.761719 56.113281 72.15625 55.714844 78.5625 C 55.648438 79.648438 54.734375 80.492188 53.644531 80.445312 C 46.65625 80.148438 41.621094 75.535156 40.207031 69.386719 C 39.964844 68.308594 38.890625 67.632812 37.8125 67.882812 C 36.738281 68.125 36.0625 69.199219 36.308594 70.277344 C 36.585938 71.484375 37.136719 73.285156 38.214844 75.226562 C 36.410156 75.585938 34.5625 76.246094 32.792969 77.222656 C 31.828125 77.757812 31.476562 78.976562 32.011719 79.941406 C 32.378906 80.601562 33.058594 80.972656 33.761719 80.972656 C 34.6875 80.972656 34.828125 80.480469 36.921875 79.730469 C 38.207031 79.269531 39.542969 78.984375 40.902344 78.886719 C 44.191406 82.34375 48.539062 84.148438 53.152344 84.421875 C 54.292969 84.488281 55.136719 85.511719 55.007812 86.644531 C 54.226562 93.503906 52.992188 100.347656 51.300781 107.136719 C 50.492188 110.386719 48.144531 113.042969 44.925781 114.164062 C 31.40625 118.871094 24.941406 108.71875 11.21875 109.3125 C 6.09375 109.535156 1.558594 105.707031 0.898438 100.589844 C 0.742188 99.382812 0.605469 98.175781 0.492188 96.96875 C 0.363281 95.652344 1.523438 94.582031 2.828125 94.804688 C 4.957031 95.167969 7.140625 95.175781 9.277344 94.75 C 10.074219 96.378906 11.632812 98.570312 14.503906 99.710938 C 14.9375 99.882812 15.773438 100.171875 16.246094 100.171875 C 17.363281 100.171875 18.351562 99.222656 18.234375 97.9375 C 18.160156 97.097656 17.527344 96.425781 16.707031 96.226562 C 15.246094 95.867188 13.976562 94.933594 13.121094 93.464844 C 14.773438 92.671875 16.292969 91.601562 17.640625 90.277344 C 18.433594 89.503906 18.445312 88.238281 17.667969 87.449219 C 16.898438 86.660156 15.628906 86.648438 14.839844 87.421875 C 13.570312 88.667969 12.113281 89.613281 10.515625 90.234375 C 10.355469 90.296875 10.171875 90.367188 9.992188 90.414062 C 9.734375 90.480469 9.6875 90.53125 9.660156 90.53125 C 6.953125 91.359375 3.992188 91.195312 1.375 90.351562 C 0.875 89.664062 0.511719 89.167969 0.015625 88.480469 C -0.460938 60.007812 10.769531 30.972656 37.730469 21.894531 C 40.882812 20.835938 44.195312 21.414062 46.785156 23.285156 C 47.386719 23.71875 47.710938 24.445312 47.613281 25.179688 C 46.96875 30 43.957031 34.28125 39.5625 36.503906 C 38.660156 36.957031 38.242188 38.019531 38.589844 38.96875 C 38.996094 40.09375 40.292969 40.609375 41.339844 40.085938 C 42.070312 39.773438 43.960938 38.53125 44.148438 38.34375 C 48.742188 34.980469 51.75 29.3125 51.75 23.207031 L 51.75 6.585938 C 51.75 5.480469 52.644531 4.585938 53.75 4.585938 L 66.25 4.585938 C 67.355469 4.585938 68.25 5.480469 68.25 6.585938 C 68.25 6.585938 68.277344 24.195312 68.285156 24.316406 C 68.761719 31.488281 73.046875 37.277344 78.660156 40.085938 C 79.722656 40.613281 81.007812 40.085938 81.410156 38.96875 C 81.757812 38.019531 81.339844 36.957031 80.4375 36.503906 C 76.046875 34.285156 73.03125 30.007812 72.386719 25.179688 C 72.289062 24.445312 72.613281 23.71875 73.214844 23.285156 C 75.8125 21.40625 79.125 20.835938 82.269531 21.894531 C 109.089844 30.925781 120.445312 59.78125 119.988281 88.40625 C 119.972656 89.257812 119.425781 90.007812 118.617188 90.28125 C 113.90625 91.867188 108.878906 91.085938 105.160156 87.425781 C 104.375 86.648438 103.109375 86.660156 102.332031 87.449219 Z M 102.332031 87.449219 "/>
</g>
</svg>
