<?xml version="1.0" encoding="UTF-8"?>
<svg xmlns="http://www.w3.org/2000/svg" xmlns:xlink="http://www.w3.org/1999/xlink" viewBox="0 0 24 24" width="24px" height="24px">
<g id="surface199193490">
<path style=" stroke:none;fill-rule:nonzero;fill:rgb(100%,100%,100%);fill-opacity:1;" d="M 4 3 C 2.898438 3 2 3.898438 2 5 L 2 9 C 2 10.101562 2.898438 11 4 11 L 8 11 C 9.101562 11 10 10.101562 10 9 L 10 5 C 10 3.898438 9.101562 3 8 3 Z M 5 6 L 7 6 L 7 8 L 5 8 Z M 12 6 L 12 8 L 22 8 L 22 6 Z M 4 13 C 2.898438 13 2 13.898438 2 15 L 2 19 C 2 20.101562 2.898438 21 4 21 L 8 21 C 9.101562 21 10 20.101562 10 19 L 10 15 C 10 13.898438 9.101562 13 8 13 Z M 6 16 C 6.550781 16 7 16.449219 7 17 C 7 17.550781 6.550781 18 6 18 C 5.449219 18 5 17.550781 5 17 C 5 16.449219 5.449219 16 6 16 Z M 12 16 L 12 18 L 22 18 L 22 16 Z M 12 16 "/>
</g>
</svg>
