<?xml version="1.0" encoding="UTF-8"?>
<svg xmlns="http://www.w3.org/2000/svg" xmlns:xlink="http://www.w3.org/1999/xlink" viewBox="0 0 48 48" width="48px" height="48px">
<g id="surface26350492">
<path style=" stroke:none;fill-rule:nonzero;fill:rgb(100%,100%,100%);fill-opacity:1;" d="M 43.714844 2 L 24 2.003906 L 4.285156 2 C 1.925781 2 0 3.9375 0 6.316406 C 0 6.96875 0.148438 7.597656 0.441406 8.191406 C 3.636719 14.75 8.996094 24.050781 13.722656 32.257812 C 16.191406 36.546875 18.527344 40.597656 20.214844 43.675781 C 21.011719 45.132812 22.425781 46 24.003906 46 C 25.574219 46 26.988281 45.132812 27.789062 43.675781 C 29.472656 40.601562 31.804688 36.550781 34.273438 32.265625 C 39.003906 24.058594 44.363281 14.753906 47.5625 8.195312 C 47.851562 7.601562 48 6.96875 48 6.316406 C 48 3.9375 46.078125 2 43.714844 2 Z M 43.714844 2 "/>
</g>
</svg>
