<?xml version="1.0" encoding="UTF-8"?>
<svg xmlns="http://www.w3.org/2000/svg" xmlns:xlink="http://www.w3.org/1999/xlink" viewBox="0 0 60 60" width="60px" height="60px">
<g id="surface19097265">
<path style=" stroke:none;fill-rule:nonzero;fill:rgb(100%,100%,100%);fill-opacity:1;" d="M 49.414062 17.585938 L 36.414062 4.585938 C 36.039062 4.210938 35.53125 4 35 4 L 14 4 C 11.789062 4 10 5.789062 10 8 L 10 52 C 10 54.210938 11.789062 56 14 56 L 46 56 C 48.210938 56 50 54.210938 50 52 L 50 19 C 50 18.46875 49.789062 17.960938 49.414062 17.585938 Z M 38 29.953125 C 38 30.464844 37.617188 30.890625 37.109375 30.949219 L 30 31.738281 C 30 36.300781 30 41.515625 30 42.199219 C 30 43.894531 28.628906 46 25.503906 46 C 22.707031 46 22.003906 44.210938 22.003906 43 C 22.003906 41.515625 22.898438 39.992188 25.507812 39.992188 C 27.867188 39.992188 28.003906 39.394531 28.003906 38.203125 L 28.003906 28.183594 C 28.003906 27.523438 28.5 26.964844 29.15625 26.890625 L 36.890625 26.03125 C 37.480469 25.96875 38 26.433594 38 27.027344 Z M 36 20 C 34.894531 20 34 19.105469 34 18 L 34 7.808594 L 46.191406 20 Z M 36 20 "/>
</g>
</svg>
