<?xml version="1.0" encoding="UTF-8"?>
<svg xmlns="http://www.w3.org/2000/svg" xmlns:xlink="http://www.w3.org/1999/xlink" viewBox="0 0 48 48" width="48px" height="48px">
<g id="surface271861009">
<path style=" stroke:none;fill-rule:nonzero;fill:rgb(100%,100%,100%);fill-opacity:1;" d="M 42 10 L 6 10 C 3.792969 10 2 11.792969 2 14 L 2 36 C 2 38.207031 3.792969 40 6 40 L 42 40 C 44.207031 40 46 38.207031 46 36 L 46 14 C 46 11.792969 44.207031 10 42 10 Z M 14 24 L 14 30 L 12 30 L 12 26 L 10 26 L 10 30 L 8 30 L 8 20 L 10 20 L 10 24 L 12 24 L 12 20 L 14 20 Z M 22 22 L 20 22 L 20 30 L 18 30 L 18 22 L 16 22 L 16 20 L 22 20 Z M 34 30 L 32 30 L 32 27.304688 L 32.207031 23.15625 L 29.753906 30 L 28.234375 30 L 25.796875 23.15625 L 26 27.304688 L 26 30 L 24 30 L 24 20.046875 L 26.914062 20.046875 L 29.003906 27.246094 L 31.085938 20.046875 L 34 20.046875 Z M 40 30 L 36 30 L 36 20 L 38 20 L 38 28 L 40 28 Z M 40 30 "/>
</g>
</svg>
