<?xml version="1.0" encoding="UTF-8"?>
<svg xmlns="http://www.w3.org/2000/svg" xmlns:xlink="http://www.w3.org/1999/xlink" viewBox="0 0 48 48" width="48px" height="48px">
<g id="surface271904243">
<path style=" stroke:none;fill-rule:nonzero;fill:rgb(100%,100%,100%);fill-opacity:1;" d="M 26.34375 4 L 12 4 C 9.800781 4 8 5.800781 8 8 L 8 40 C 8 42.199219 9.800781 44 12 44 L 36 44 C 38.199219 44 40 42.199219 40 40 L 40 17.65625 C 40 16.597656 39.578125 15.578125 38.828125 14.828125 L 29.171875 5.171875 C 28.421875 4.421875 27.402344 4 26.34375 4 Z M 21.152344 35.304688 L 21.113281 35.347656 C 20.496094 35.957031 19.503906 35.957031 18.890625 35.34375 L 14.699219 31.148438 C 14.085938 30.535156 14.085938 29.539062 14.699219 28.925781 L 18.914062 24.707031 C 19.519531 24.105469 20.492188 24.09375 21.113281 24.679688 L 21.140625 24.703125 C 21.792969 25.320312 21.796875 26.359375 21.144531 26.980469 L 18 30 L 21.144531 33.058594 C 21.777344 33.671875 21.78125 34.6875 21.152344 35.304688 Z M 26.886719 35.269531 L 26.8125 35.1875 C 26.21875 34.554688 26.246094 33.558594 26.875 32.964844 L 30 30 L 26.886719 26.964844 C 26.257812 26.347656 26.253906 25.328125 26.886719 24.710938 C 27.503906 24.109375 28.488281 24.113281 29.101562 24.722656 L 33.300781 28.925781 C 33.914062 29.539062 33.914062 30.535156 33.300781 31.148438 L 29.144531 35.304688 C 28.519531 35.929688 27.496094 35.914062 26.886719 35.269531 Z M 26 18 L 26 7 L 37 18 Z M 26 18 "/>
</g>
</svg>
