<?xml version="1.0" encoding="UTF-8"?>
<svg xmlns="http://www.w3.org/2000/svg" xmlns:xlink="http://www.w3.org/1999/xlink" viewBox="0 0 50 50" width="50px" height="50px">
<g id="surface27502230">
<path style=" stroke:none;fill-rule:nonzero;fill:rgb(100%,100%,100%);fill-opacity:1;" d="M 42.707031 33.332031 C 41.402344 33.332031 40.222656 33.832031 39.308594 34.628906 L 32.171875 29.171875 C 32.890625 27.941406 33.332031 26.527344 33.332031 25 C 33.332031 23.53125 32.917969 22.171875 32.25 20.976562 L 37.144531 17.386719 C 38.066406 18.226562 39.28125 18.75 40.625 18.75 C 43.496094 18.75 45.832031 16.414062 45.832031 13.542969 C 45.832031 10.671875 43.496094 8.332031 40.625 8.332031 C 37.753906 8.332031 35.417969 10.671875 35.417969 13.542969 C 35.417969 14.316406 35.597656 15.046875 35.90625 15.710938 L 31.03125 19.285156 C 29.511719 17.679688 27.378906 16.667969 25 16.667969 C 24.335938 16.667969 23.699219 16.765625 23.078125 16.910156 L 21.878906 13.710938 C 23.734375 12.625 25 10.632812 25 8.332031 C 25 4.886719 22.195312 2.082031 18.75 2.082031 C 15.304688 2.082031 12.5 4.886719 12.5 8.332031 C 12.5 11.78125 15.304688 14.582031 18.75 14.582031 C 19.15625 14.582031 19.550781 14.539062 19.9375 14.464844 L 21.136719 17.660156 C 18.925781 18.832031 17.292969 20.9375 16.820312 23.476562 L 12.425781 23.21875 C 12.0625 20.699219 9.910156 18.75 7.292969 18.75 C 4.421875 18.75 2.082031 21.085938 2.082031 23.957031 C 2.082031 26.828125 4.421875 29.167969 7.292969 29.167969 C 9.699219 29.167969 11.707031 27.519531 12.304688 25.296875 L 16.722656 25.554688 C 16.867188 27.675781 17.777344 29.582031 19.214844 30.976562 L 15.347656 36.136719 C 14.488281 35.691406 13.53125 35.417969 12.5 35.417969 C 9.054688 35.417969 6.25 38.21875 6.25 41.667969 C 6.25 45.113281 9.054688 47.917969 12.5 47.917969 C 15.945312 47.917969 18.75 45.113281 18.75 41.667969 C 18.75 40 18.085938 38.496094 17.019531 37.375 L 20.894531 32.207031 C 22.113281 32.902344 23.5 33.332031 25 33.332031 C 27.320312 33.332031 29.414062 32.378906 30.925781 30.84375 L 38.039062 36.28125 C 37.703125 36.96875 37.5 37.726562 37.5 38.542969 C 37.5 41.414062 39.835938 43.75 42.707031 43.75 C 45.578125 43.75 47.917969 41.414062 47.917969 38.542969 C 47.917969 35.671875 45.578125 33.332031 42.707031 33.332031 Z M 42.707031 33.332031 "/>
</g>
</svg>
