<?xml version="1.0" encoding="UTF-8"?>
<svg xmlns="http://www.w3.org/2000/svg" xmlns:xlink="http://www.w3.org/1999/xlink" viewBox="0 0 48 48" width="48px" height="48px">
<g id="surface33167743">
<path style=" stroke:none;fill-rule:nonzero;fill:rgb(100%,100%,100%);fill-opacity:1;" d="M 14 4 C 10.691406 4 8 6.691406 8 10 C 8 12.601562 9.675781 14.804688 12 15.632812 L 12 32.367188 C 9.675781 33.195312 8 35.398438 8 38 C 8 41.308594 10.691406 44 14 44 C 17.308594 44 20 41.308594 20 38 C 20 35.398438 18.324219 33.195312 16 32.367188 L 16 24.742188 C 16.785156 25.6875 17.648438 26.542969 18.554688 27.300781 C 21.625 29.871094 25.148438 31.445312 28.328125 31.871094 C 29.121094 34.257812 31.347656 36 34 36 C 37.308594 36 40 33.308594 40 30 C 40 26.691406 37.308594 24 34 24 C 31.464844 24 29.300781 25.589844 28.425781 27.816406 C 26.261719 27.390625 23.449219 26.179688 21.125 24.234375 C 18.558594 22.085938 16.566406 19.195312 16.105469 15.601562 C 18.375 14.746094 20 12.566406 20 10 C 20 6.691406 17.308594 4 14 4 Z M 14 4 "/>
</g>
</svg>
