<?xml version="1.0" encoding="UTF-8"?>
<svg xmlns="http://www.w3.org/2000/svg" xmlns:xlink="http://www.w3.org/1999/xlink" viewBox="0 0 60 60" width="60px" height="60px">
<g id="surface214030974">
<path style=" stroke:none;fill-rule:nonzero;fill:rgb(100%,100%,100%);fill-opacity:1;" d="M 26 6 C 24.976562 6 23.953125 6.390625 23.171875 7.171875 L 5.171875 25.171875 C 3.609375 26.734375 3.609375 29.265625 5.171875 30.828125 L 8.296875 33.953125 C 8.652344 32.601562 9.328125 31.355469 10.34375 30.34375 L 28.34375 12.34375 C 29.855469 10.832031 31.863281 10 34 10 L 44.890625 10 C 43.503906 7.617188 40.953125 6 38 6 Z M 34 14 C 32.976562 14 31.953125 14.390625 31.171875 15.171875 L 13.171875 33.171875 C 11.609375 34.734375 11.609375 37.265625 13.171875 38.828125 L 29.171875 54.828125 C 30.734375 56.390625 33.265625 56.390625 34.828125 54.828125 L 52.828125 36.828125 C 53.609375 36.046875 54 35.023438 54 34 L 54 22 C 54 17.582031 50.417969 14 46 14 Z M 46 18 C 48.210938 18 50 19.789062 50 22 C 50 24.210938 48.210938 26 46 26 C 43.789062 26 42 24.210938 42 22 C 42 19.789062 43.789062 18 46 18 Z M 46 18 "/>
</g>
</svg>
