<?xml version="1.0" encoding="UTF-8"?>
<svg xmlns="http://www.w3.org/2000/svg" xmlns:xlink="http://www.w3.org/1999/xlink" viewBox="0 0 48 48" width="48px" height="48px">
<g id="surface33157027">
<path style=" stroke:none;fill-rule:nonzero;fill:rgb(100%,100%,100%);fill-opacity:1;" d="M 40 8 L 8 8 C 5.789062 8 4 9.789062 4 12 L 4 36 C 4 38.210938 5.789062 40 8 40 L 40 40 C 42.210938 40 44 38.210938 44 36 L 44 12 C 44 9.789062 42.210938 8 40 8 Z M 14 32 L 10 32 C 8.894531 32 8 31.105469 8 30 C 8 28.894531 8.894531 28 10 28 L 14 28 C 15.105469 28 16 28.894531 16 30 C 16 31.105469 15.105469 32 14 32 Z M 14 20 L 10 20 C 8.894531 20 8 19.105469 8 18 C 8 16.894531 8.894531 16 10 16 L 14 16 C 15.105469 16 16 16.894531 16 18 C 16 19.105469 15.105469 20 14 20 Z M 38 34 L 22 34 C 20.894531 34 20 33.105469 20 32 L 20 28 C 20 26.894531 20.894531 26 22 26 L 38 26 C 39.105469 26 40 26.894531 40 28 L 40 32 C 40 33.105469 39.105469 34 38 34 Z M 38 22 L 22 22 C 20.894531 22 20 21.105469 20 20 L 20 16 C 20 14.894531 20.894531 14 22 14 L 38 14 C 39.105469 14 40 14.894531 40 16 L 40 20 C 40 21.105469 39.105469 22 38 22 Z M 38 22 "/>
</g>
</svg>
