<?xml version="1.0" encoding="UTF-8"?>
<svg xmlns="http://www.w3.org/2000/svg" xmlns:xlink="http://www.w3.org/1999/xlink" viewBox="0 0 48 48" width="48px" height="48px">
<g id="surface271906117">
<path style=" stroke:none;fill-rule:nonzero;fill:rgb(100%,100%,100%);fill-opacity:1;" d="M 26.34375 4 L 12 4 C 9.800781 4 8 5.800781 8 8 L 8 40 C 8 42.199219 9.800781 44 12 44 L 36 44 C 38.199219 44 40 42.199219 40 40 L 40 17.65625 C 40 16.597656 39.578125 15.578125 38.828125 14.828125 L 29.171875 5.171875 C 28.421875 4.421875 27.402344 4 26.34375 4 Z M 20 34.304688 L 20 25.695312 C 20 24.949219 20.8125 24.488281 21.453125 24.871094 L 28.628906 29.175781 C 29.25 29.546875 29.25 30.449219 28.628906 30.820312 L 21.453125 35.125 C 20.8125 35.511719 20 35.050781 20 34.304688 Z M 26 18 L 26 7 L 37 18 Z M 26 18 "/>
</g>
</svg>
