<?xml version="1.0" encoding="UTF-8"?>
<svg xmlns="http://www.w3.org/2000/svg" xmlns:xlink="http://www.w3.org/1999/xlink" viewBox="0 0 48 48" width="48px" height="48px">
<g id="surface26347613">
<path style=" stroke:none;fill-rule:nonzero;fill:rgb(100%,100%,100%);fill-opacity:1;" d="M 47.5625 39.804688 C 44.367188 33.25 39.011719 23.957031 34.285156 15.757812 C 31.8125 11.460938 29.476562 7.402344 27.785156 4.320312 C 26.988281 2.867188 25.574219 2 24 2 C 22.425781 2 21.007812 2.867188 20.210938 4.320312 C 18.523438 7.402344 16.1875 11.457031 13.714844 15.75 C 8.988281 23.953125 3.632812 33.25 0.4375 39.804688 C 0.148438 40.402344 0 41.035156 0 41.679688 C 0 44.0625 1.921875 46 4.285156 46 L 24 45.996094 L 43.710938 46 C 46.078125 46 48 44.0625 48 41.679688 C 48 41.035156 47.851562 40.402344 47.5625 39.804688 Z M 47.5625 39.804688 "/>
</g>
</svg>
