<?xml version="1.0" encoding="UTF-8"?>
<svg xmlns="http://www.w3.org/2000/svg" xmlns:xlink="http://www.w3.org/1999/xlink" viewBox="0 0 60 60" width="60px" height="60px">
<g id="surface19105866">
<path style=" stroke:none;fill-rule:nonzero;fill:rgb(100%,100%,100%);fill-opacity:1;" d="M 49.414062 17.585938 L 36.414062 4.585938 C 36.039062 4.210938 35.53125 4 35 4 L 14 4 C 11.789062 4 10 5.789062 10 8 L 10 52 C 10 54.210938 11.789062 56 14 56 L 46 56 C 48.210938 56 50 54.210938 50 52 L 50 19 C 50 18.46875 49.789062 17.960938 49.414062 17.585938 Z M 36 42 L 20 42 C 18.894531 42 18 41.105469 18 40 C 18 38.894531 18.894531 38 20 38 L 36 38 C 37.105469 38 38 38.894531 38 40 C 38 41.105469 37.105469 42 36 42 Z M 40 34 L 20 34 C 18.894531 34 18 33.105469 18 32 C 18 30.894531 18.894531 30 20 30 L 40 30 C 41.105469 30 42 30.894531 42 32 C 42 33.105469 41.105469 34 40 34 Z M 36 20 C 34.894531 20 34 19.105469 34 18 L 34 7.808594 L 46.191406 20 Z M 36 20 "/>
</g>
</svg>
