<?xml version="1.0" encoding="UTF-8"?>
<svg xmlns="http://www.w3.org/2000/svg" xmlns:xlink="http://www.w3.org/1999/xlink" viewBox="0 0 48 48" width="48px" height="48px">
<g id="surface8798223">
<path style=" stroke:none;fill-rule:nonzero;fill:rgb(100%,100%,100%);fill-opacity:1;" d="M 20 2 C 17.390625 2 15.191406 3.675781 14.367188 6 L 10 6 C 7.789062 6 6 7.789062 6 10 L 6 32 C 6 34.210938 7.789062 36 10 36 L 18 36 L 18 42 C 18 43.105469 18.894531 44 20 44 L 26 44 C 27.105469 44 28 43.105469 28 42 C 28 40.894531 27.105469 40 26 40 L 22 40 L 22 36 L 30 36 C 32.210938 36 34 34.210938 34 32 L 34 24 L 38 24 L 38 28 C 38 29.105469 38.894531 30 40 30 C 41.105469 30 42 29.105469 42 28 L 42 22 C 42 20.894531 41.105469 20 40 20 L 34 20 L 34 10 C 34 7.789062 32.210938 6 30 6 L 25.632812 6 C 24.808594 3.675781 22.609375 2 20 2 Z M 20 6 C 21.105469 6 22 6.894531 22 8 C 22 9.105469 21.105469 10 20 10 C 18.894531 10 18 9.105469 18 8 C 18 6.894531 18.894531 6 20 6 Z M 20 20 L 26 20 C 27.105469 20 28 20.894531 28 22 C 28 23.105469 27.105469 24 26 24 L 22 24 L 22 28 C 22 29.105469 21.105469 30 20 30 C 18.894531 30 18 29.105469 18 28 L 18 22 C 18 20.894531 18.894531 20 20 20 Z M 40 34 C 38.894531 34 38 34.894531 38 36 L 38 40 L 34 40 C 32.894531 40 32 40.894531 32 42 C 32 43.105469 32.894531 44 34 44 L 40 44 C 41.105469 44 42 43.105469 42 42 L 42 36 C 42 34.894531 41.105469 34 40 34 Z M 40 34 "/>
</g>
</svg>
