<?xml version="1.0" encoding="UTF-8"?>
<svg xmlns="http://www.w3.org/2000/svg" xmlns:xlink="http://www.w3.org/1999/xlink" viewBox="0 0 48 48" width="48px" height="48px">
<g id="surface19073947">
<path style=" stroke:none;fill-rule:nonzero;fill:rgb(100%,100%,100%);fill-opacity:1;" d="M 10.5 6 C 8.03125 6 6 8.03125 6 10.5 L 6 37.5 C 6 39.96875 8.03125 42 10.5 42 L 29.5 42 C 29.898438 42 30.277344 41.84375 30.558594 41.558594 C 30.566406 41.554688 30.570312 41.550781 30.574219 41.542969 L 41.558594 30.558594 C 41.84375 30.277344 42 29.898438 42 29.5 L 42 10.5 C 42 8.03125 39.96875 6 37.5 6 Z M 10.5 9 L 37.5 9 C 38.207031 9 38.777344 9.460938 38.945312 10.105469 C 38.367188 10.339844 37.988281 10.90625 38 11.53125 C 38.015625 12.152344 38.410156 12.707031 39 12.914062 L 39 18.085938 C 38.402344 18.300781 38.003906 18.867188 38.003906 19.5 C 38.003906 20.136719 38.402344 20.703125 39 20.914062 L 39 26.089844 C 38.21875 26.363281 37.8125 27.21875 38.085938 28 L 32.914062 28 C 33.074219 27.542969 33.003906 27.03125 32.722656 26.636719 C 32.441406 26.238281 31.988281 26 31.5 26 C 30.898438 26 30.355469 26.359375 30.121094 26.914062 C 29.886719 27.464844 30.003906 28.105469 30.417969 28.539062 C 29.617188 28.964844 28.964844 29.617188 28.539062 30.417969 C 28.261719 30.152344 27.886719 30 27.5 30 C 26.671875 30 26 30.671875 26 31.5 C 26 32.328125 26.671875 33 27.5 33 C 27.671875 33 27.839844 32.96875 28 32.910156 L 28 38.085938 C 27.839844 38.027344 27.671875 38 27.5 38 C 26.863281 38 26.300781 38.402344 26.085938 39 L 20.914062 39 C 20.703125 38.402344 20.136719 38 19.5 38 C 18.863281 38 18.300781 38.402344 18.085938 39 L 12.914062 39 C 12.703125 38.402344 12.136719 38 11.5 38 C 10.886719 38 10.335938 38.375 10.105469 38.945312 C 9.460938 38.777344 9 38.207031 9 37.5 L 9 10.5 C 9 9.652344 9.652344 9 10.5 9 Z M 15.5 10 C 14.671875 10 14 10.671875 14 11.5 C 14 12.328125 14.671875 13 15.5 13 C 16.328125 13 17 12.328125 17 11.5 C 17 10.671875 16.328125 10 15.5 10 Z M 23.5 10 C 22.671875 10 22 10.671875 22 11.5 C 22 12.328125 22.671875 13 23.5 13 C 24.328125 13 25 12.328125 25 11.5 C 25 10.671875 24.328125 10 23.5 10 Z M 31.5 10 C 30.671875 10 30 10.671875 30 11.5 C 30 12.328125 30.671875 13 31.5 13 C 32.328125 13 33 12.328125 33 11.5 C 33 10.671875 32.328125 10 31.5 10 Z M 11.5 14 C 10.671875 14 10 14.671875 10 15.5 C 10 16.328125 10.671875 17 11.5 17 C 12.328125 17 13 16.328125 13 15.5 C 13 14.671875 12.328125 14 11.5 14 Z M 19.5 14 C 18.671875 14 18 14.671875 18 15.5 C 18 16.328125 18.671875 17 19.5 17 C 20.328125 17 21 16.328125 21 15.5 C 21 14.671875 20.328125 14 19.5 14 Z M 27.5 14 C 26.671875 14 26 14.671875 26 15.5 C 26 16.328125 26.671875 17 27.5 17 C 28.328125 17 29 16.328125 29 15.5 C 29 14.671875 28.328125 14 27.5 14 Z M 35.5 14 C 34.671875 14 34 14.671875 34 15.5 C 34 16.328125 34.671875 17 35.5 17 C 36.328125 17 37 16.328125 37 15.5 C 37 14.671875 36.328125 14 35.5 14 Z M 15.5 18 C 14.671875 18 14 18.671875 14 19.5 C 14 20.328125 14.671875 21 15.5 21 C 16.328125 21 17 20.328125 17 19.5 C 17 18.671875 16.328125 18 15.5 18 Z M 23.5 18 C 22.671875 18 22 18.671875 22 19.5 C 22 20.328125 22.671875 21 23.5 21 C 24.328125 21 25 20.328125 25 19.5 C 25 18.671875 24.328125 18 23.5 18 Z M 31.5 18 C 30.671875 18 30 18.671875 30 19.5 C 30 20.328125 30.671875 21 31.5 21 C 32.328125 21 33 20.328125 33 19.5 C 33 18.671875 32.328125 18 31.5 18 Z M 11.5 22 C 10.671875 22 10 22.671875 10 23.5 C 10 24.328125 10.671875 25 11.5 25 C 12.328125 25 13 24.328125 13 23.5 C 13 22.671875 12.328125 22 11.5 22 Z M 19.5 22 C 18.671875 22 18 22.671875 18 23.5 C 18 24.328125 18.671875 25 19.5 25 C 20.328125 25 21 24.328125 21 23.5 C 21 22.671875 20.328125 22 19.5 22 Z M 27.5 22 C 26.671875 22 26 22.671875 26 23.5 C 26 24.328125 26.671875 25 27.5 25 C 28.328125 25 29 24.328125 29 23.5 C 29 22.671875 28.328125 22 27.5 22 Z M 35.5 22 C 34.671875 22 34 22.671875 34 23.5 C 34 24.328125 34.671875 25 35.5 25 C 36.328125 25 37 24.328125 37 23.5 C 37 22.671875 36.328125 22 35.5 22 Z M 15.5 26 C 14.671875 26 14 26.671875 14 27.5 C 14 28.328125 14.671875 29 15.5 29 C 16.328125 29 17 28.328125 17 27.5 C 17 26.671875 16.328125 26 15.5 26 Z M 23.5 26 C 22.671875 26 22 26.671875 22 27.5 C 22 28.328125 22.671875 29 23.5 29 C 24.328125 29 25 28.328125 25 27.5 C 25 26.671875 24.328125 26 23.5 26 Z M 11.5 30 C 10.671875 30 10 30.671875 10 31.5 C 10 32.328125 10.671875 33 11.5 33 C 12.328125 33 13 32.328125 13 31.5 C 13 30.671875 12.328125 30 11.5 30 Z M 19.5 30 C 18.671875 30 18 30.671875 18 31.5 C 18 32.328125 18.671875 33 19.5 33 C 20.328125 33 21 32.328125 21 31.5 C 21 30.671875 20.328125 30 19.5 30 Z M 32.5 31 L 36.878906 31 L 31 36.878906 L 31 32.5 C 31 31.652344 31.652344 31 32.5 31 Z M 15.5 34 C 14.671875 34 14 34.671875 14 35.5 C 14 36.328125 14.671875 37 15.5 37 C 16.328125 37 17 36.328125 17 35.5 C 17 34.671875 16.328125 34 15.5 34 Z M 23.5 34 C 22.671875 34 22 34.671875 22 35.5 C 22 36.328125 22.671875 37 23.5 37 C 24.328125 37 25 36.328125 25 35.5 C 25 34.671875 24.328125 34 23.5 34 Z M 23.5 34 "/>
</g>
</svg>
