<?xml version="1.0" encoding="UTF-8"?>
<svg xmlns="http://www.w3.org/2000/svg" xmlns:xlink="http://www.w3.org/1999/xlink" viewBox="0 0 64 64" width="64px" height="64px">
<g id="surface26281683">
<path style=" stroke:none;fill-rule:nonzero;fill:rgb(90.588236%,29.803923%,23.529412%);fill-opacity:1;" d="M 61 32 C 61 48.015625 48.015625 61 32 61 C 15.984375 61 3 48.015625 3 32 C 3 15.984375 15.984375 3 32 3 C 48.015625 3 61 15.984375 61 32 Z M 61 32 "/>
<path style=" stroke:none;fill-rule:nonzero;fill:rgb(78.039217%,29.803923%,23.137255%);fill-opacity:1;" d="M 37 52 C 27.644531 52 18.863281 47.484375 13.417969 39.875 C 7.972656 32.265625 6.53125 22.5 9.550781 13.644531 C 2.207031 22.625 0.925781 35.121094 6.289062 45.410156 C 11.65625 55.699219 22.636719 61.796875 34.207031 60.914062 C 45.777344 60.03125 55.707031 52.339844 59.453125 41.355469 C 53.949219 48.101562 45.703125 52.007812 37 52 Z M 37 52 "/>
<path style=" stroke:none;fill-rule:nonzero;fill:rgb(98.823529%,65.490198%,62.7451%);fill-opacity:1;" d="M 35.621094 7.625 C 35.335938 7.949219 35.136719 8.339844 35.039062 8.761719 C 34.769531 10.097656 35.957031 11.273438 37.121094 12.019531 C 38.183594 12.675781 39.285156 13.273438 40.414062 13.8125 L 44.976562 16.082031 C 46.632812 16.90625 48.53125 18.125 50.425781 17.988281 C 50.914062 17.984375 51.398438 17.863281 51.835938 17.640625 C 53.464844 16.6875 53.113281 14.566406 52.410156 13.148438 C 51.59375 11.683594 50.421875 10.445312 49 9.550781 C 45.960938 7.460938 38.699219 3.898438 35.621094 7.625 Z M 35.621094 7.625 "/>
<path style=" stroke:none;fill-rule:nonzero;fill:rgb(98.823529%,65.490198%,62.7451%);fill-opacity:1;" d="M 52.105469 19.421875 C 51.960938 19.726562 51.964844 20.082031 52.117188 20.386719 C 52.242188 20.582031 52.398438 20.753906 52.578125 20.898438 C 52.875 21.1875 53.203125 21.441406 53.554688 21.65625 C 53.933594 21.886719 54.367188 22.003906 54.808594 22 C 55.027344 22 55.238281 21.9375 55.417969 21.820312 C 55.503906 21.753906 55.582031 21.671875 55.640625 21.578125 C 56.289062 20.5 56 19.101562 54.976562 18.371094 C 53.820312 17.449219 52.535156 18.417969 52.105469 19.421875 Z M 52.105469 19.421875 "/>
<path style=" stroke:none;fill-rule:nonzero;fill:rgb(62.352943%,13.725491%,2.352941%);fill-opacity:1;" d="M 29 43 L 27 41 L 24 41 L 24 42 C 24 42.550781 23.550781 43 23 43 L 16 43 L 16 28 L 13 28 L 13 46 L 20 46 C 20.550781 46 21 45.550781 21 45 L 21 44 L 24 44 L 26 46 L 40 46 C 41.34375 46 42.347656 44.753906 43.089844 42.992188 C 43.058594 42.992188 43.03125 43 43 43 Z M 29 43 "/>
<path style=" stroke:none;fill-rule:nonzero;fill:rgb(62.352943%,13.725491%,2.352941%);fill-opacity:1;" d="M 33.171875 18.199219 C 32.792969 18.070312 32.398438 18.003906 32 18 L 28 25 L 31 22 Z M 33.171875 18.199219 "/>
<path style=" stroke:none;fill-rule:nonzero;fill:rgb(83.529413%,44.313726%,44.313726%);fill-opacity:1;" d="M 24 41 L 24 42 C 24 42.550781 23.550781 43 23 43 L 16 43 L 16 25 L 23 25 C 23.550781 25 24 25.449219 24 26 Z M 24 41 "/>
<path style=" stroke:none;fill-rule:nonzero;fill:rgb(100%,100%,100%);fill-opacity:1;" d="M 36 26 L 45 26 C 45.800781 25.984375 46.574219 26.292969 47.140625 26.859375 C 47.707031 27.425781 48.015625 28.199219 48 29 C 48 32 47 43 43 43 L 29 43 L 27 41 L 24 41 L 24 26 L 27 26 L 31 22 L 35 15 C 37.085938 15 38.785156 16.683594 38.800781 18.769531 C 38.800781 18.890625 38.789062 19.011719 38.78125 19.140625 C 38.480469 22.261719 37.75 26 36 26 Z M 36 26 "/>
<path style=" stroke:none;fill-rule:nonzero;fill:rgb(71.372551%,43.529412%,42.352942%);fill-opacity:1;" d="M 23 40 L 16 40 L 16 43 L 23 43 C 23.550781 43 24 42.550781 24 42 L 24 39 C 24 39.550781 23.550781 40 23 40 Z M 23 40 "/>
<path style=" stroke:none;fill-rule:nonzero;fill:rgb(92.54902%,61.960787%,59.607846%);fill-opacity:1;" d="M 43 40 L 29 40 L 27 38 L 24 38 L 24 41 L 27 41 L 29 43 L 43 43 C 47 43 48 32 48 29 C 48 28.714844 47.964844 28.429688 47.898438 28.152344 C 47.566406 32.449219 46.316406 40 43 40 Z M 43 40 "/>
</g>
</svg>
