<?xml version="1.0" encoding="UTF-8"?>
<svg xmlns="http://www.w3.org/2000/svg" xmlns:xlink="http://www.w3.org/1999/xlink" viewBox="0 0 50 50" width="50px" height="50px">
<g id="surface27483916">
<path style=" stroke:none;fill-rule:nonzero;fill:rgb(100%,100%,100%);fill-opacity:1;" d="M 3 3 L 3 47 L 47 47 L 47 3 Z M 5 5 L 15 5 L 15 7 L 7 7 L 7 15 L 5 15 Z M 15 45 L 5 45 L 5 35 L 7 35 L 7 43 L 15 43 Z M 32 35 C 31.453125 35 30.640625 34.78125 29.878906 33.75 C 29.121094 32.726562 28.550781 31.019531 28.25 28.972656 C 26.265625 28.902344 24.644531 28.578125 23.339844 28.097656 C 22.703125 31.65625 21.550781 35 17.5 35 C 14.355469 35 13.1875 32.46875 13.007812 31.132812 C 12.9375 30.585938 13.320312 30.082031 13.867188 30.007812 C 14.410156 29.941406 14.917969 30.320312 14.992188 30.867188 C 15.023438 31.078125 15.371094 33 17.5 33 C 20.121094 33 20.863281 30.832031 21.460938 27.207031 C 18.777344 25.585938 18.085938 23.433594 18.042969 23.285156 C 17.882812 22.757812 18.183594 22.199219 18.714844 22.042969 C 19.238281 21.886719 19.792969 22.179688 19.953125 22.703125 C 19.988281 22.804688 20.390625 23.941406 21.800781 25.019531 C 22.5 20.382812 23.609375 15 30 15 C 30.554688 15 31 15.449219 31 16 C 31 16.550781 30.554688 17 30 17 C 25.34375 17 24.503906 20.40625 23.671875 26.015625 C 23.667969 26.035156 23.664062 26.058594 23.664062 26.078125 C 24.777344 26.539062 26.21875 26.878906 28.054688 26.96875 C 27.917969 24.375 28.191406 21.453125 29.046875 18.703125 C 29.207031 18.175781 29.765625 17.878906 30.296875 18.046875 C 30.824219 18.210938 31.117188 18.769531 30.953125 19.296875 C 29.191406 24.980469 30.152344 30.75 31.488281 32.5625 C 31.742188 32.90625 31.933594 33 32 33 C 32.554688 33 33 33.445312 33 34 C 33 34.554688 32.554688 35 32 35 Z M 45 45 L 35 45 L 35 43 L 43 43 L 43 35 L 45 35 Z M 45 15 L 43 15 L 43 7 L 35 7 L 35 5 L 45 5 Z M 45 15 "/>
</g>
</svg>
