<?xml version="1.0" encoding="UTF-8"?>
<svg xmlns="http://www.w3.org/2000/svg" xmlns:xlink="http://www.w3.org/1999/xlink" viewBox="0 0 60 60" width="60px" height="60px">
<g id="surface24989012">
<path style=" stroke:none;fill-rule:nonzero;fill:rgb(100%,100%,100%);fill-opacity:1;" d="M 30 6 C 15.640625 6 4 15.851562 4 28 C 4 34.734375 7.585938 40.757812 13.222656 44.792969 C 13.367188 47.863281 12.890625 52.105469 8.652344 54.0625 C 8.648438 54.0625 8.648438 54.066406 8.644531 54.066406 C 8.257812 54.214844 8 54.585938 8 55 C 8 55.550781 8.449219 56 9 56 C 9.027344 56 9.058594 56 9.085938 55.996094 C 13.953125 55.964844 18.085938 53.335938 20.9375 50.554688 C 21.839844 49.671875 23.101562 49.238281 24.34375 49.472656 C 26.164062 49.820312 28.054688 50 30 50 C 44.359375 50 56 40.148438 56 28 C 56 15.851562 44.359375 6 30 6 Z M 18 24 C 20.210938 24 22 25.789062 22 28 C 22 30.210938 20.210938 32 18 32 C 15.789062 32 14 30.210938 14 28 C 14 25.789062 15.789062 24 18 24 Z M 30 24 C 32.210938 24 34 25.789062 34 28 C 34 30.210938 32.210938 32 30 32 C 27.789062 32 26 30.210938 26 28 C 26 25.789062 27.789062 24 30 24 Z M 42 24 C 44.210938 24 46 25.789062 46 28 C 46 30.210938 44.210938 32 42 32 C 39.789062 32 38 30.210938 38 28 C 38 25.789062 39.789062 24 42 24 Z M 42 24 "/>
</g>
</svg>
