<?xml version="1.0" encoding="UTF-8"?>
<svg xmlns="http://www.w3.org/2000/svg" xmlns:xlink="http://www.w3.org/1999/xlink" viewBox="0 0 48 48" width="48px" height="48px">
<g id="surface271864163">
<path style=" stroke:none;fill-rule:nonzero;fill:rgb(100%,100%,100%);fill-opacity:1;" d="M 23.171875 7.171875 L 5.171875 25.171875 C 3.609375 26.734375 3.609375 29.265625 5.171875 30.828125 L 17.171875 42.828125 C 18.734375 44.390625 21.265625 44.390625 22.828125 42.828125 L 40.828125 24.828125 C 41.578125 24.078125 42 23.058594 42 22 L 42 10 C 42 7.789062 40.210938 6 38 6 L 26 6 C 24.941406 6 23.921875 6.421875 23.171875 7.171875 Z M 35 16 C 33.34375 16 32 14.65625 32 13 C 32 11.34375 33.34375 10 35 10 C 36.65625 10 38 11.34375 38 13 C 38 14.65625 36.65625 16 35 16 Z M 35 16 "/>
</g>
</svg>
