<?xml version="1.0" encoding="UTF-8"?>
<svg xmlns="http://www.w3.org/2000/svg" xmlns:xlink="http://www.w3.org/1999/xlink" viewBox="0 0 48 48" width="48px" height="48px">
<g id="surface33442868">
<path style=" stroke:none;fill-rule:nonzero;fill:rgb(100%,100%,100%);fill-opacity:1;" d="M 24 4 C 12.953125 4 4 12.953125 4 24 C 4 35.046875 12.953125 44 24 44 C 35.046875 44 44 35.046875 44 24 C 44 12.953125 35.046875 4 24 4 Z M 30 26 L 26 26 L 26 30 C 26 31.105469 25.105469 32 24 32 C 22.894531 32 22 31.105469 22 30 L 22 26 L 18 26 C 16.894531 26 16 25.105469 16 24 C 16 22.894531 16.894531 22 18 22 L 22 22 L 22 18 C 22 16.894531 22.894531 16 24 16 C 25.105469 16 26 16.894531 26 18 L 26 22 L 30 22 C 31.105469 22 32 22.894531 32 24 C 32 25.105469 31.105469 26 30 26 Z M 30 26 "/>
</g>
</svg>
