<?xml version="1.0" encoding="UTF-8"?>
<svg xmlns="http://www.w3.org/2000/svg" xmlns:xlink="http://www.w3.org/1999/xlink" viewBox="0 0 60 60" width="60px" height="60px">
<g id="surface196816689">
<path style=" stroke:none;fill-rule:nonzero;fill:rgb(100%,100%,100%);fill-opacity:1;" d="M 30.039062 0 C 26.308594 -0.0585938 22.769531 1.257812 19.929688 3.785156 C 16.722656 6.644531 14.878906 10.730469 14.878906 15 L 14.878906 22.4375 C 14.878906 27.554688 13.148438 32.585938 10 36.609375 L 4.265625 43.929688 L 55.382812 43.929688 L 49.652344 36.609375 C 46.5 32.585938 44.769531 27.554688 44.769531 22.4375 L 44.769531 20.324219 C 44.769531 20.40625 42.769531 20.289062 42.609375 20.273438 C 37.988281 19.734375 34.140625 16.222656 33.042969 11.703125 C 32.785156 10.636719 32.6875 9.539062 32.75 8.441406 C 32.757812 8.25 32.773438 8.058594 32.796875 7.867188 C 33.054688 5.539062 34.058594 3.328125 35.621094 1.589844 C 35.703125 1.496094 35.777344 1.398438 35.867188 1.304688 C 34.523438 0.6875 33.109375 0.285156 31.648438 0.109375 C 31.109375 0.046875 30.574219 0.0117188 30.039062 0 Z M 43.933594 0 C 39.699219 0 35.886719 3.203125 35.039062 7.371094 C 34.070312 12.144531 37.308594 16.992188 42.03125 17.996094 C 46.753906 19.003906 51.5625 16.023438 52.734375 11.320312 C 52.917969 10.597656 53.007812 9.851562 53.007812 9.105469 C 53.007812 4.085938 48.9375 0 43.933594 0 Z M 3.140625 46.070312 L 3.140625 52.5 L 56.511719 52.5 L 56.511719 46.070312 Z M 23.511719 54.644531 C 24.019531 57.679688 26.65625 60 29.824219 60 C 32.992188 60 35.632812 57.679688 36.144531 54.644531 Z M 23.511719 54.644531 "/>
</g>
</svg>
