<?xml version="1.0" encoding="UTF-8"?>
<svg xmlns="http://www.w3.org/2000/svg" xmlns:xlink="http://www.w3.org/1999/xlink" viewBox="0 0 60 60" width="60px" height="60px">
<g id="surface214174869">
<path style=" stroke:none;fill-rule:nonzero;fill:rgb(100%,100%,100%);fill-opacity:1;" d="M 30 6 C 16.746094 6 6 16.746094 6 30 C 6 43.253906 16.746094 54 30 54 C 43.253906 54 54 43.253906 54 30 C 54 16.746094 43.253906 6 30 6 Z M 39.414062 36.585938 C 40.195312 37.367188 40.195312 38.632812 39.414062 39.414062 C 39.023438 39.804688 38.511719 40 38 40 C 37.488281 40 36.976562 39.804688 36.585938 39.414062 L 30 32.828125 L 23.414062 39.414062 C 23.023438 39.804688 22.511719 40 22 40 C 21.488281 40 20.976562 39.804688 20.585938 39.414062 C 19.804688 38.632812 19.804688 37.367188 20.585938 36.585938 L 27.171875 30 L 20.585938 23.414062 C 19.804688 22.632812 19.804688 21.367188 20.585938 20.585938 C 21.367188 19.804688 22.632812 19.804688 23.414062 20.585938 L 30 27.171875 L 36.585938 20.585938 C 37.367188 19.804688 38.632812 19.804688 39.414062 20.585938 C 40.195312 21.367188 40.195312 22.632812 39.414062 23.414062 L 32.828125 30 Z M 39.414062 36.585938 "/>
</g>
</svg>
