<?xml version="1.0" encoding="UTF-8"?>
<svg xmlns="http://www.w3.org/2000/svg" xmlns:xlink="http://www.w3.org/1999/xlink" viewBox="0 0 48 48" width="48px" height="48px">
<g id="surface8803612">
<path style=" stroke:none;fill-rule:nonzero;fill:rgb(100%,100%,100%);fill-opacity:1;" d="M 38 6 L 29.632812 6 C 28.804688 3.675781 26.609375 2 24 2 C 21.390625 2 19.195312 3.675781 18.367188 6 L 10 6 C 7.789062 6 6 7.789062 6 10 L 6 38 C 6 40.210938 7.789062 42 10 42 L 38 42 C 40.210938 42 42 40.210938 42 38 L 42 10 C 42 7.789062 40.210938 6 38 6 Z M 24 6 C 25.105469 6 26 6.894531 26 8 C 26 9.105469 25.105469 10 24 10 C 22.894531 10 22 9.105469 22 8 C 22 6.894531 22.894531 6 24 6 Z M 30 20 L 26 20 L 26 32 C 26 33.105469 25.105469 34 24 34 C 22.894531 34 22 33.105469 22 32 L 22 20 L 18 20 C 16.894531 20 16 19.105469 16 18 C 16 16.894531 16.894531 16 18 16 L 30 16 C 31.105469 16 32 16.894531 32 18 C 32 19.105469 31.105469 20 30 20 Z M 30 20 "/>
</g>
</svg>
