<?xml version="1.0" encoding="UTF-8"?>
<svg xmlns="http://www.w3.org/2000/svg" xmlns:xlink="http://www.w3.org/1999/xlink" viewBox="0 0 96 96" width="96px" height="96px">
<g id="surface54680283">
<path style=" stroke:none;fill-rule:nonzero;fill:rgb(100%,100%,100%);fill-opacity:1;" d="M 45 10 C 42.242188 10 40 12.242188 40 15 L 40 21 C 40 23.757812 42.242188 26 45 26 L 45 30 L 32 30 C 28.171875 30 25 33.171875 25 37 L 25 40 C 22.242188 40 20 42.242188 20 45 L 20 51 C 20 53.757812 22.242188 56 25 56 L 25 60 L 22 60 C 18.171875 60 15 63.171875 15 67 L 15 70 C 12.242188 70 10 72.242188 10 75 L 10 81 C 10 83.757812 12.242188 86 15 86 L 21 86 C 23.757812 86 26 83.757812 26 81 L 26 75 C 26 72.242188 23.757812 70 21 70 L 21 67 C 21 66.410156 21.410156 66 22 66 L 27.507812 66 C 27.828125 66.054688 28.160156 66.054688 28.480469 66 L 34 66 C 34.589844 66 35 66.410156 35 67 L 35 70 C 32.242188 70 30 72.242188 30 75 L 30 81 C 30 83.757812 32.242188 86 35 86 L 41 86 C 43.757812 86 46 83.757812 46 81 L 46 75 C 46 72.242188 43.757812 70 41 70 L 41 67 C 41 63.171875 37.828125 60 34 60 L 31 60 L 31 56 C 33.757812 56 36 53.757812 36 51 L 36 45 C 36 42.242188 33.757812 40 31 40 L 31 37 C 31 36.410156 31.410156 36 32 36 L 47.507812 36 C 47.828125 36.054688 48.160156 36.054688 48.480469 36 L 64 36 C 64.589844 36 65 36.410156 65 37 L 65 40 C 62.242188 40 60 42.242188 60 45 L 60 51 C 60 53.757812 62.242188 56 65 56 L 65 60 L 62 60 C 58.171875 60 55 63.171875 55 67 L 55 70 C 52.242188 70 50 72.242188 50 75 L 50 81 C 50 83.757812 52.242188 86 55 86 L 61 86 C 63.757812 86 66 83.757812 66 81 L 66 75 C 66 72.242188 63.757812 70 61 70 L 61 67 C 61 66.410156 61.410156 66 62 66 L 67.507812 66 C 67.828125 66.054688 68.160156 66.054688 68.480469 66 L 74 66 C 74.589844 66 75 66.410156 75 67 L 75 70 C 72.242188 70 70 72.242188 70 75 L 70 81 C 70 83.757812 72.242188 86 75 86 L 81 86 C 83.757812 86 86 83.757812 86 81 L 86 75 C 86 72.242188 83.757812 70 81 70 L 81 67 C 81 63.171875 77.828125 60 74 60 L 71 60 L 71 56 C 73.757812 56 76 53.757812 76 51 L 76 45 C 76 42.242188 73.757812 40 71 40 L 71 37 C 71 33.171875 67.828125 30 64 30 L 51 30 L 51 26 C 53.757812 26 56 23.757812 56 21 L 56 15 C 56 12.242188 53.757812 10 51 10 Z M 45 10 "/>
</g>
</svg>
