<?xml version="1.0" encoding="UTF-8"?>
<svg xmlns="http://www.w3.org/2000/svg" xmlns:xlink="http://www.w3.org/1999/xlink" viewBox="0 0 48 48" width="48px" height="48px">
<g id="surface26646291">
<path style=" stroke:none;fill-rule:nonzero;fill:rgb(100%,100%,100%);fill-opacity:1;" d="M 8 6 C 5.800781 6 4 7.800781 4 10 L 4 31.585938 C 4 32.476562 5.078125 32.921875 5.707031 32.292969 L 10 28 L 28 28 C 30.199219 28 32 26.199219 32 24 L 32 10 C 32 7.800781 30.199219 6 28 6 Z M 36 16 L 36 24 C 36 28.417969 32.417969 32 28 32 L 16 32 L 16 34 C 16 36.199219 17.800781 38 20 38 L 38 38 L 42.292969 42.292969 C 42.921875 42.921875 44 42.476562 44 41.585938 L 44 20 C 44 17.800781 42.199219 16 40 16 Z M 36 16 "/>
</g>
</svg>
