<?xml version="1.0" encoding="UTF-8"?>
<svg xmlns="http://www.w3.org/2000/svg" xmlns:xlink="http://www.w3.org/1999/xlink" viewBox="0 0 48 48" width="48px" height="48px">
<g id="surface33173428">
<path style=" stroke:none;fill-rule:nonzero;fill:rgb(100%,100%,100%);fill-opacity:1;" d="M 43.199219 1.921875 C 42.140625 1.921875 41.28125 2.777344 41.28125 3.839844 C 41.28125 4.121094 41.351562 4.378906 41.460938 4.621094 L 33.78125 15.359375 C 33.71875 15.355469 33.660156 15.359375 33.601562 15.359375 C 33.21875 15.359375 32.851562 15.464844 32.550781 15.660156 L 25.921875 12.359375 C 25.855469 11.355469 25.019531 10.558594 24 10.558594 C 22.9375 10.558594 22.078125 11.417969 22.078125 12.480469 C 22.078125 12.582031 22.09375 12.683594 22.109375 12.78125 L 15.089844 18.359375 C 14.875 18.277344 14.644531 18.238281 14.398438 18.238281 C 13.441406 18.238281 12.652344 18.941406 12.511719 19.859375 L 5.96875 22.5 C 5.644531 22.246094 5.242188 22.078125 4.800781 22.078125 C 3.738281 22.078125 2.878906 22.9375 2.878906 24 C 2.878906 25.0625 3.738281 25.921875 4.800781 25.921875 C 5.765625 25.921875 6.558594 25.203125 6.691406 24.269531 L 13.230469 21.660156 C 13.554688 21.914062 13.957031 22.078125 14.398438 22.078125 C 15.460938 22.078125 16.320312 21.222656 16.320312 20.160156 C 16.320312 20.058594 16.304688 19.957031 16.289062 19.859375 L 23.308594 14.28125 C 23.523438 14.363281 23.757812 14.398438 24 14.398438 C 24.382812 14.398438 24.75 14.296875 25.050781 14.101562 L 31.679688 17.398438 C 31.742188 18.40625 32.578125 19.199219 33.601562 19.199219 C 34.660156 19.199219 35.519531 18.339844 35.519531 17.28125 C 35.519531 17 35.449219 16.738281 35.339844 16.5 L 43.019531 5.761719 C 43.078125 5.765625 43.140625 5.761719 43.199219 5.761719 C 44.261719 5.761719 45.121094 4.902344 45.121094 3.839844 C 45.121094 2.777344 44.261719 1.921875 43.199219 1.921875 Z M 39.359375 14.398438 L 39.359375 48 L 47.039062 48 L 47.039062 14.398438 Z M 20.160156 23.039062 L 20.160156 48 L 27.839844 48 L 27.839844 23.039062 Z M 29.761719 27.839844 L 29.761719 48 L 37.441406 48 L 37.441406 27.839844 Z M 10.558594 30.71875 L 10.558594 48 L 18.238281 48 L 18.238281 30.71875 Z M 0.960938 34.558594 L 0.960938 48 L 8.640625 48 L 8.640625 34.558594 Z M 0.960938 34.558594 "/>
</g>
</svg>
