<?xml version="1.0" encoding="UTF-8"?>
<svg xmlns="http://www.w3.org/2000/svg" xmlns:xlink="http://www.w3.org/1999/xlink" viewBox="0 0 60 60" width="60px" height="60px">
<g id="surface19099968">
<path style=" stroke:none;fill-rule:nonzero;fill:rgb(100%,100%,100%);fill-opacity:1;" d="M 49.414062 17.585938 L 36.414062 4.585938 C 36.039062 4.210938 35.53125 4 35 4 L 14 4 C 11.789062 4 10 5.789062 10 8 L 10 52 C 10 54.210938 11.789062 56 14 56 L 46 56 C 48.210938 56 50 54.210938 50 52 L 50 19 C 50 18.46875 49.789062 17.960938 49.414062 17.585938 Z M 24.457031 30.386719 L 21.9375 30.386719 L 21.9375 42 L 19.191406 42 L 19.191406 30.386719 L 16.691406 30.386719 L 16.691406 27.847656 L 24.457031 27.847656 Z M 31.957031 42 L 31.074219 39.394531 C 30.804688 38.578125 30.550781 37.777344 30.320312 36.875 L 30.257812 36.875 C 30.027344 37.777344 29.816406 38.640625 29.609375 39.4375 L 28.851562 42 L 26.121094 42 L 28.765625 34.757812 L 26.222656 27.851562 L 29.078125 27.851562 L 29.921875 30.472656 C 30.128906 31.210938 30.339844 31.945312 30.550781 32.742188 L 30.59375 32.742188 C 30.820312 31.882812 31.011719 31.210938 31.203125 30.433594 L 31.914062 27.851562 L 34.664062 27.851562 L 32.019531 34.886719 L 34.8125 42 Z M 44.15625 30.386719 L 41.636719 30.386719 L 41.636719 42 L 38.886719 42 L 38.886719 30.386719 L 36.386719 30.386719 L 36.386719 27.847656 L 44.152344 27.847656 L 44.152344 30.386719 Z M 36 20 C 34.894531 20 34 19.105469 34 18 L 34 7.808594 L 46.191406 20 Z M 36 20 "/>
</g>
</svg>
