<?xml version="1.0" encoding="UTF-8"?>
<svg xmlns="http://www.w3.org/2000/svg" xmlns:xlink="http://www.w3.org/1999/xlink" viewBox="0 0 30 30" width="30px" height="30px">
<g id="surface199205434">
<path style=" stroke:none;fill-rule:nonzero;fill:rgb(100%,100%,100%);fill-opacity:1;" d="M 15 3 C 7.820312 3 2 7.925781 2 14 C 2 17.367188 3.792969 20.378906 6.613281 22.394531 C 6.683594 23.933594 6.445312 26.054688 4.328125 27.03125 C 4.324219 27.03125 4.324219 27.03125 4.324219 27.035156 C 4.128906 27.105469 4 27.292969 4 27.5 C 4 27.777344 4.222656 28 4.5 28 C 4.515625 28 4.527344 28 4.542969 28 C 6.976562 27.984375 9.042969 26.667969 10.46875 25.277344 C 10.921875 24.835938 11.550781 24.621094 12.171875 24.734375 C 13.082031 24.910156 14.027344 25 15 25 C 22.179688 25 28 20.074219 28 14 C 28 7.925781 22.179688 3 15 3 Z M 15 7 C 17.207031 7 19 8.792969 19 11 C 19 12.714844 17.929688 13.703125 17.066406 14.5 C 16.40625 15.109375 16 15.511719 16 16 L 14 16 C 14 14.609375 14.949219 13.734375 15.710938 13.027344 C 16.511719 12.292969 17 11.800781 17 11 C 17 9.898438 16.101562 9 15 9 C 13.898438 9 13 9.898438 13 11 L 11 11 C 11 8.792969 12.792969 7 15 7 Z M 15 18.5 C 15.828125 18.5 16.5 19.171875 16.5 20 C 16.5 20.828125 15.828125 21.5 15 21.5 C 14.171875 21.5 13.5 20.828125 13.5 20 C 13.5 19.171875 14.171875 18.5 15 18.5 Z M 15 18.5 "/>
</g>
</svg>
