<?xml version="1.0" encoding="UTF-8"?>
<svg xmlns="http://www.w3.org/2000/svg" xmlns:xlink="http://www.w3.org/1999/xlink" viewBox="0 0 24 24" width="24px" height="24px">
<g id="surface199185318">
<path style=" stroke:none;fill-rule:nonzero;fill:rgb(100%,100%,100%);fill-opacity:1;" d="M 12 2 C 6.476562 2 2 6.476562 2 12 C 2 17.523438 6.476562 22 12 22 C 17.523438 22 22 17.523438 22 12 C 22 6.476562 17.523438 2 12 2 Z M 14.585938 16 L 11.292969 12.707031 C 11.105469 12.519531 11 12.265625 11 12 L 11 7 C 11 6.449219 11.449219 6 12 6 C 12.550781 6 13 6.449219 13 7 L 13 11.585938 L 16 14.585938 C 16.390625 14.976562 16.390625 15.609375 16 16 C 15.609375 16.390625 14.976562 16.390625 14.585938 16 Z M 14.585938 16 "/>
</g>
</svg>
