<?xml version="1.0" encoding="UTF-8"?>
<svg xmlns="http://www.w3.org/2000/svg" xmlns:xlink="http://www.w3.org/1999/xlink" viewBox="0 0 48 48" width="48px" height="48px">
<g id="surface271856553">
<path style=" stroke:none;fill-rule:nonzero;fill:rgb(100%,100%,100%);fill-opacity:1;" d="M 7.1875 6 C 6.53125 6 6 6.53125 6 7.1875 L 6 15.140625 C 6 16.199219 7.28125 16.730469 8.03125 15.980469 L 10.59375 13.421875 L 18.585938 21.414062 C 19.085938 21.9375 19.832031 22.148438 20.535156 21.964844 C 21.234375 21.78125 21.78125 21.234375 21.964844 20.535156 C 22.148438 19.832031 21.9375 19.085938 21.414062 18.585938 L 13.421875 10.59375 L 15.980469 8.03125 C 16.730469 7.28125 16.199219 6 15.140625 6 Z M 32.859375 6 C 31.800781 6 31.269531 7.28125 32.019531 8.03125 L 34.578125 10.59375 L 26.585938 18.585938 C 26.0625 19.085938 25.851562 19.832031 26.035156 20.535156 C 26.21875 21.234375 26.765625 21.78125 27.464844 21.964844 C 28.167969 22.148438 28.914062 21.9375 29.414062 21.414062 L 37.40625 13.421875 L 39.96875 15.980469 C 40.71875 16.730469 42 16.199219 42 15.140625 L 42 7.1875 C 42 6.53125 41.464844 6 40.808594 6 Z M 19.960938 25.980469 C 19.441406 25.996094 18.949219 26.214844 18.585938 26.585938 L 10.59375 34.578125 L 8.03125 32.019531 C 7.28125 31.269531 6 31.800781 6 32.859375 L 6 40.808594 C 6 41.464844 6.53125 42 7.1875 42 L 15.140625 42 C 16.199219 42 16.730469 40.71875 15.980469 39.96875 L 13.421875 37.40625 L 21.414062 29.414062 C 22.003906 28.839844 22.183594 27.960938 21.863281 27.199219 C 21.539062 26.441406 20.785156 25.957031 19.960938 25.980469 Z M 27.980469 25.980469 C 27.167969 25.980469 26.433594 26.472656 26.128906 27.226562 C 25.820312 27.980469 26.003906 28.847656 26.585938 29.414062 L 34.578125 37.40625 L 32.019531 39.96875 C 31.269531 40.71875 31.800781 42 32.859375 42 L 40.808594 42 C 41.464844 42 42 41.46875 42 40.8125 L 42 32.859375 C 42 31.800781 40.71875 31.269531 39.96875 32.019531 L 37.40625 34.578125 L 29.414062 26.585938 C 29.039062 26.199219 28.519531 25.980469 27.980469 25.980469 Z M 27.980469 25.980469 "/>
</g>
</svg>
