<?xml version="1.0" encoding="UTF-8"?>
<svg xmlns="http://www.w3.org/2000/svg" xmlns:xlink="http://www.w3.org/1999/xlink" viewBox="0 0 50 50" width="50px" height="50px">
<g id="surface19069773">
<path style=" stroke:none;fill-rule:nonzero;fill:rgb(100%,100%,100%);fill-opacity:1;" d="M 12 2 C 8.691406 2 6 4.691406 6 8 L 6 42.417969 C 6 45.496094 8.691406 48 12 48 L 44 48 L 44 46 L 12 46 C 9.832031 46 8 44.359375 8 42.417969 C 8 40.503906 9.757812 39 12 39 L 44 39 L 44 2 Z M 16.941406 15 L 19.054688 15 L 23 25.515625 L 23 26 L 21.0625 26.050781 L 21 25.878906 L 20.296875 24 L 15.703125 24 L 14.9375 26.050781 L 14.808594 26 L 13 26 L 13 25.515625 Z M 29.25 15 L 37 15 L 37 16.832031 L 31.625 24 L 37 24 L 37 26 L 29 26 L 29 24.167969 L 34.375 17 L 29.25 17 Z M 18 17.878906 L 16.457031 22 L 19.546875 22 Z M 24 19 L 28 19 L 28 21 L 24 21 Z M 24 19 "/>
</g>
</svg>
