<?xml version="1.0" encoding="UTF-8"?>
<svg xmlns="http://www.w3.org/2000/svg" xmlns:xlink="http://www.w3.org/1999/xlink" viewBox="0 0 60 60" width="60px" height="60px">
<g id="surface19059488">
<path style=" stroke:none;fill-rule:nonzero;fill:rgb(100%,100%,100%);fill-opacity:1;" d="M 19.96875 7.972656 C 19.871094 7.976562 19.773438 7.984375 19.679688 8 L 12 8 C 9.8125 8 8 9.8125 8 12 L 8 19.664062 C 7.964844 19.878906 7.964844 20.101562 8 20.316406 L 8 29.664062 C 7.964844 29.878906 7.964844 30.101562 8 30.316406 L 8 39.664062 C 7.964844 39.878906 7.964844 40.101562 8 40.316406 L 8 48 C 8 50.1875 9.8125 52 12 52 L 19.664062 52 C 19.878906 52.035156 20.101562 52.035156 20.316406 52 L 29.664062 52 C 29.878906 52.035156 30.101562 52.035156 30.316406 52 L 39.664062 52 C 39.878906 52.035156 40.101562 52.035156 40.316406 52 L 48 52 C 50.1875 52 52 50.1875 52 48 L 52 40.335938 C 52.035156 40.121094 52.035156 39.898438 52 39.683594 L 52 30.335938 C 52.035156 30.121094 52.035156 29.898438 52 29.683594 L 52 20.335938 C 52.035156 20.121094 52.035156 19.898438 52 19.683594 L 52 12 C 52 9.8125 50.1875 8 48 8 L 40.308594 8 C 40.195312 7.980469 40.082031 7.972656 39.96875 7.972656 C 39.871094 7.976562 39.773438 7.984375 39.679688 8 L 30.308594 8 C 30.195312 7.980469 30.082031 7.972656 29.96875 7.972656 C 29.871094 7.976562 29.773438 7.984375 29.679688 8 L 20.308594 8 C 20.195312 7.980469 20.082031 7.972656 19.96875 7.972656 Z M 12 12 L 18 12 L 18 18 L 12 18 Z M 22 12 L 28 12 L 28 18 L 22 18 Z M 32 12 L 38 12 L 38 18 L 32 18 Z M 42 12 L 48 12 L 48 18 L 42 18 Z M 12 22 L 18 22 L 18 28 L 12 28 Z M 22 22 L 28 22 L 28 28 L 22 28 Z M 32 22 L 38 22 L 38 28 L 32 28 Z M 42 22 L 48 22 L 48 28 L 42 28 Z M 12 32 L 18 32 L 18 38 L 12 38 Z M 22 32 L 28 32 L 28 38 L 22 38 Z M 32 32 L 38 32 L 38 38 L 32 38 Z M 42 32 L 48 32 L 48 38 L 42 38 Z M 12 42 L 18 42 L 18 48 L 12 48 Z M 22 42 L 28 42 L 28 48 L 22 48 Z M 32 42 L 38 42 L 38 48 L 32 48 Z M 42 42 L 48 42 L 48 48 L 42 48 Z M 42 42 "/>
</g>
</svg>
