<?xml version="1.0" encoding="UTF-8"?>
<svg xmlns="http://www.w3.org/2000/svg" xmlns:xlink="http://www.w3.org/1999/xlink" viewBox="0 0 96 96" width="96px" height="96px">
<g id="surface54711112">
<path style=" stroke:none;fill-rule:nonzero;fill:rgb(100%,100%,100%);fill-opacity:1;" d="M 21 12 C 14.9375 12 10 16.9375 10 23 L 10 72 C 10 78.617188 15.382812 84 22 84 L 38.160156 84 C 38.066406 83.34375 38 82.679688 38 82 C 38 79.847656 38.527344 77.824219 39.402344 76 L 22 76 C 19.792969 76 18 74.207031 18 72 L 18 30 L 78 30 L 78 57.550781 C 81.621094 60.140625 84.316406 63.960938 85.425781 68.425781 C 85.625 68.476562 85.804688 68.5625 86 68.621094 L 86 23 C 86 16.9375 81.0625 12 75 12 Z M 21 18 C 22.65625 18 24 19.34375 24 21 C 24 22.65625 22.65625 24 21 24 C 19.34375 24 18 22.65625 18 21 C 18 19.34375 19.34375 18 21 18 Z M 31 18 C 32.65625 18 34 19.34375 34 21 C 34 22.65625 32.65625 24 31 24 C 29.34375 24 28 22.65625 28 21 C 28 19.34375 29.34375 18 31 18 Z M 67 58 C 59.050781 58 52.570312 64.183594 52.050781 72 L 52 72 C 46.476562 72 42 76.476562 42 82 C 42 87.523438 46.476562 92 52 92 L 82 92 C 87.523438 92 92 87.523438 92 82 C 92 76.476562 87.523438 72 82 72 L 81.949219 72 C 81.433594 64.183594 74.949219 58 67 58 Z M 67 58 "/>
</g>
</svg>
