<?xml version="1.0" encoding="UTF-8"?>
<svg xmlns="http://www.w3.org/2000/svg" xmlns:xlink="http://www.w3.org/1999/xlink" viewBox="0 0 60 60" width="60px" height="60px">
<g id="surface19096580">
<path style=" stroke:none;fill-rule:nonzero;fill:rgb(100%,100%,100%);fill-opacity:1;" d="M 14 4 C 11.789062 4 10 5.789062 10 8 L 10 52 C 10 54.210938 11.789062 56 14 56 L 46 56 C 48.210938 56 50 54.210938 50 52 L 50 19 C 50 18.46875 49.789062 17.960938 49.414062 17.585938 L 36.414062 4.585938 C 36.039062 4.210938 35.53125 4 35 4 Z M 34 7.808594 L 46.191406 20 L 36 20 C 34.894531 20 34 19.105469 34 18 Z M 20 20 C 22.210938 20 24 21.789062 24 24 C 24 26.210938 22.210938 28 20 28 C 17.789062 28 16 26.210938 16 24 C 16 21.789062 17.789062 20 20 20 Z M 24 36.003906 C 25.238281 36.003906 26.476562 36.476562 27.421875 37.421875 L 30 40 L 30.03125 39.96875 L 32.371094 42.3125 C 33.214844 43.15625 34.578125 43.148438 35.421875 42.304688 C 36.265625 41.460938 36.265625 40.089844 35.421875 39.242188 L 33.140625 36.960938 C 35.035156 35.5625 37.707031 35.707031 39.421875 37.421875 L 44 42 L 44 48 L 16 48 L 16 42 L 20.578125 37.421875 C 21.523438 36.476562 22.761719 36.003906 24 36.003906 Z M 24 36.003906 "/>
</g>
</svg>
