<?xml version="1.0" encoding="UTF-8"?>
<svg xmlns="http://www.w3.org/2000/svg" xmlns:xlink="http://www.w3.org/1999/xlink" viewBox="0 0 60 60" width="60px" height="60px">
<g id="surface19110320">
<path style=" stroke:none;fill-rule:nonzero;fill:rgb(100%,100%,100%);fill-opacity:1;" d="M 30 6 C 20.796875 6 11.222656 8.074219 11.222656 8.074219 L 11.214844 8.082031 C 9.347656 8.457031 8.003906 10.09375 8 12 L 8 24 C 8 44.796875 28.042969 53.488281 28.042969 53.488281 C 28.640625 53.824219 29.316406 54 30 54 C 30.683594 54 31.355469 53.824219 31.949219 53.488281 L 31.957031 53.488281 C 31.960938 53.488281 52 44.796875 52 24 L 52 12 C 52 10.089844 50.652344 8.445312 48.777344 8.074219 C 48.777344 8.074219 39.203125 6 30 6 Z M 30 14 C 34.410156 14 38 17.589844 38 22 C 38 25.429688 35.859375 27.40625 34.136719 29 C 32.8125 30.222656 32 31.023438 32 32 L 28 32 C 28 29.222656 29.898438 27.46875 31.421875 26.058594 C 33.019531 24.582031 34 23.597656 34 22 C 34 19.792969 32.207031 18 30 18 C 27.792969 18 26 19.792969 26 22 L 22 22 C 22 17.589844 25.589844 14 30 14 Z M 30 37 C 31.65625 37 33 38.34375 33 40 C 33 41.65625 31.65625 43 30 43 C 28.34375 43 27 41.65625 27 40 C 27 38.34375 28.34375 37 30 37 Z M 30 37 "/>
</g>
</svg>
