<?xml version="1.0" encoding="UTF-8"?>
<svg xmlns="http://www.w3.org/2000/svg" xmlns:xlink="http://www.w3.org/1999/xlink" viewBox="0 0 48 48" width="48px" height="48px">
<g id="surface33181378">
<path style=" stroke:none;fill-rule:nonzero;fill:rgb(100%,100%,100%);fill-opacity:1;" d="M 26.34375 4 L 12 4 C 9.800781 4 8 5.800781 8 8 L 8 40 C 8 42.199219 9.800781 44 12 44 L 36 44 C 38.199219 44 40 42.199219 40 40 L 40 17.65625 C 40 16.597656 39.578125 15.578125 38.828125 14.828125 L 29.171875 5.171875 C 28.421875 4.421875 27.402344 4 26.34375 4 Z M 31.847656 35.394531 C 31.363281 36.53125 30.402344 37.019531 29.28125 36.695312 C 28.316406 36.371094 27.195312 35.558594 26.070312 34.261719 C 24.949219 34.425781 23.824219 34.746094 22.703125 35.070312 C 21.421875 37.34375 20.136719 39.289062 18.855469 39.773438 C 18.53125 39.9375 18.210938 40 17.890625 40 C 17.246094 40 16.769531 39.773438 16.445312 39.289062 C 16.125 38.800781 15.484375 37.828125 16.765625 36.371094 C 17.566406 35.394531 19.492188 34.425781 21.578125 33.777344 C 22.21875 32.476562 22.699219 31.183594 23.183594 29.722656 C 22.058594 27.613281 21.417969 25.34375 21.578125 24.046875 C 21.738281 22.746094 22.5625 22 23.664062 22 C 24.765625 22 25.429688 22.746094 25.75 23.882812 C 26.070312 25.179688 25.75 27.289062 24.949219 29.71875 C 25.429688 30.695312 26.070312 31.664062 26.710938 32.636719 C 28.636719 32.476562 30.238281 32.476562 31.203125 33.125 C 32.007812 33.613281 32.164062 34.421875 31.847656 35.394531 Z M 26 18 L 26 7 L 37 18 Z M 26 18 "/>
</g>
</svg>
