<?xml version="1.0" encoding="UTF-8"?>
<svg xmlns="http://www.w3.org/2000/svg" xmlns:xlink="http://www.w3.org/1999/xlink" viewBox="0 0 64 64" width="64px" height="64px">
<g id="surface25042862">
<path style=" stroke:none;fill-rule:nonzero;fill:rgb(100%,100%,100%);fill-opacity:1;" d="M 5.121094 34.558594 C 5.121094 49.382812 17.175781 61.441406 32 61.441406 C 46.824219 61.441406 58.878906 49.382812 58.878906 34.558594 C 58.878906 27.265625 55.953125 20.644531 51.21875 15.796875 L 57.914062 11.519531 L 42.238281 1.503906 L 42.238281 8.691406 L 29.441406 1.679688 L 29.441406 7.867188 C 15.820312 9.167969 5.121094 20.609375 5.121094 34.558594 Z M 36.480469 30.71875 C 40.363281 30.71875 43.519531 33.878906 43.519531 37.761719 C 43.519531 41.640625 40.363281 44.800781 36.480469 44.800781 C 32.730469 44.800781 29.441406 41.808594 29.441406 38.398438 L 32 38.398438 C 32 40.175781 33.957031 42.238281 36.480469 42.238281 C 38.949219 42.238281 40.960938 40.230469 40.960938 37.761719 C 40.960938 35.289062 38.949219 33.28125 36.480469 33.28125 C 35.207031 33.28125 33.992188 33.824219 33.140625 34.773438 L 30.921875 33.730469 L 32.320312 24.320312 L 42.238281 24.320312 L 42.238281 26.878906 L 34.542969 26.878906 L 33.890625 31.214844 C 34.707031 30.890625 35.585938 30.71875 36.480469 30.71875 Z M 19.199219 30.71875 L 19.199219 28.160156 C 21.761719 28.160156 24.320312 27.199219 24.320312 24.320312 L 26.878906 24.320312 L 26.878906 44.800781 L 24.320312 44.800781 L 24.320312 30.71875 Z M 53.160156 11.519531 L 44.800781 16.863281 L 44.800781 6.175781 Z M 7.679688 34.558594 C 7.679688 21.582031 17.90625 10.976562 30.71875 10.304688 L 30.71875 10.238281 L 32 10.238281 L 32 6 L 42.074219 11.519531 L 32 17.039062 L 32 12.824219 C 31.144531 12.824219 30.289062 12.859375 29.441406 12.957031 L 29.441406 13.003906 C 18.648438 14.277344 10.238281 23.433594 10.238281 34.558594 C 10.238281 46.558594 20 56.320312 32 56.320312 C 44 56.320312 53.761719 46.558594 53.761719 34.558594 C 53.761719 33.851562 54.332031 33.28125 55.039062 33.28125 C 55.746094 33.28125 56.320312 33.851562 56.320312 34.558594 C 56.320312 47.96875 45.410156 58.878906 32 58.878906 C 18.589844 58.878906 7.679688 47.96875 7.679688 34.558594 Z M 7.679688 34.558594 "/>
</g>
</svg>
