<?xml version="1.0" encoding="UTF-8"?>
<svg xmlns="http://www.w3.org/2000/svg" xmlns:xlink="http://www.w3.org/1999/xlink" viewBox="0 0 100 100" width="100px" height="100px">
<g id="surface54740900">
<path style=" stroke:none;fill-rule:nonzero;fill:rgb(100%,100%,100%);fill-opacity:1;" d="M 43 4.1875 L 50.375 10 L 62 5.625 Z M 37.625 5 L 21.625 12.1875 L 44.8125 10.625 Z M 66 8.625 L 55.375 12.375 L 73.8125 20.375 Z M 71.1875 9.1875 L 80 22.375 L 85.8125 19.375 Z M 45.1875 14.625 L 21 16.1875 L 33.1875 28.1875 Z M 53 15.8125 L 59.375 38.1875 L 75.375 25.375 Z M 49 16.375 L 36.625 30.375 L 55.1875 38.1875 Z M 14.1875 18.625 L 5 35.625 L 12.375 46.1875 Z M 18.1875 19 L 16.375 46.375 L 30.375 31.1875 Z M 88.375 22.625 L 81.625 26 L 86.8125 45.1875 L 95.375 41.8125 Z M 78.1875 28.375 L 62.8125 40.625 L 82.8125 45.1875 Z M 35.625 34.1875 L 37.625 59.625 L 54.8125 42.375 Z M 31.625 35.8125 L 17.1875 51.375 L 33.8125 60.375 Z M 4.1875 41.375 L 5.8125 64.8125 L 11.625 52.1875 Z M 61.1875 44.375 L 67.625 68.625 L 82.1875 49.1875 Z M 57.375 45.625 L 39.8125 63 L 63.8125 70 Z M 95.8125 46 L 88 49.1875 L 92.625 66.1875 Z M 84.625 52.375 L 71 70.625 L 89.1875 69.1875 Z M 17.1875 56 L 21.8125 71.8125 L 32.1875 64.1875 Z M 13.625 57.625 L 8.8125 67.8125 L 17.625 71.625 Z M 35.375 67 L 24.8125 74.625 L 45.1875 83.375 Z M 40.375 67.375 L 50.375 84.625 L 62.625 73.8125 Z M 9.1875 72.375 L 23.375 88 L 19.1875 76.625 Z M 90.1875 73 L 71.625 74.625 L 82.625 84 Z M 66.8125 75.625 L 55.8125 85.1875 L 76.375 83.8125 Z M 24.1875 78.8125 L 28.1875 89.625 L 43.1875 86.8125 Z M 75.8125 88 L 53.8125 89.375 L 58.1875 95.1875 Z M 49.1875 89.8125 L 33 92.8125 L 53.625 95.625 Z M 49.1875 89.8125 "/>
</g>
</svg>
