<?xml version="1.0" encoding="UTF-8"?>
<svg xmlns="http://www.w3.org/2000/svg" xmlns:xlink="http://www.w3.org/1999/xlink" viewBox="0 0 24 24" width="24px" height="24px">
<g id="surface17296372">
<path style=" stroke:none;fill-rule:nonzero;fill:rgb(100%,100%,100%);fill-opacity:1;" d="M 12 2 C 6.488281 2 2 6.488281 2 12 C 2 17.511719 6.488281 22 12 22 C 17.511719 22 22 17.511719 22 12 C 22 6.488281 17.511719 2 12 2 Z M 12 4 C 16.429688 4 20 7.570312 20 12 C 20 16.429688 16.429688 20 12 20 C 7.570312 20 4 16.429688 4 12 C 4 7.570312 7.570312 4 12 4 Z M 12 7.007812 C 10.71875 7.007812 9.4375 7.492188 8.464844 8.464844 C 6.519531 10.410156 6.519531 13.589844 8.464844 15.535156 C 10.410156 17.480469 13.589844 17.480469 15.535156 15.535156 L 14.121094 14.121094 C 12.941406 15.300781 11.058594 15.300781 9.878906 14.121094 C 8.699219 12.941406 8.699219 11.058594 9.878906 9.878906 C 11.058594 8.699219 12.941406 8.699219 14.121094 9.878906 L 15.535156 8.464844 C 14.5625 7.492188 13.28125 7.007812 12 7.007812 Z M 12 7.007812 "/>
</g>
</svg>
