<?xml version="1.0" encoding="UTF-8"?>
<svg xmlns="http://www.w3.org/2000/svg" xmlns:xlink="http://www.w3.org/1999/xlink" viewBox="0 0 24 24" width="24px" height="24px">
<g id="surface20099041">
<path style=" stroke:none;fill-rule:nonzero;fill:rgb(100%,100%,100%);fill-opacity:1;" d="M 8.484375 5 C 8.171875 5 7.875 5.148438 7.683594 5.402344 L 3.394531 11.164062 C 3.136719 11.511719 3 11.929688 3 12.359375 L 3 17.027344 C 3 18.132812 3.894531 19.027344 5 19.027344 L 9 19.027344 C 10.105469 19.027344 11 18.132812 11 17.027344 L 11 13.027344 C 11 11.921875 10.105469 11.027344 9 11.027344 L 5.988281 11.027344 L 9.289062 6.597656 C 9.777344 5.9375 9.308594 5 8.484375 5 Z M 18.46875 5 C 18.152344 5 17.851562 5.148438 17.664062 5.402344 L 13.394531 11.136719 C 13.136719 11.484375 13 11.902344 13 12.332031 L 13 17 C 13 18.105469 13.894531 19 15 19 L 19 19 C 20.105469 19 21 18.105469 21 17 L 21 13 C 21 11.894531 20.105469 11 19 11 L 15.992188 11 L 19.269531 6.597656 C 19.757812 5.9375 19.289062 5 18.46875 5 Z M 18.46875 5 "/>
</g>
</svg>
