<?xml version="1.0" encoding="UTF-8"?>
<svg xmlns="http://www.w3.org/2000/svg" xmlns:xlink="http://www.w3.org/1999/xlink" viewBox="0 0 48 48" width="48px" height="48px">
<g id="surface26285870">
<path style=" stroke:none;fill-rule:nonzero;fill:rgb(90.588236%,29.803923%,23.529412%);fill-opacity:1;" d="M 24 8 C 10.285156 8 3.769531 19.757812 2.191406 23.113281 C 1.925781 23.671875 1.925781 24.324219 2.191406 24.882812 C 3.769531 28.242188 10.285156 40 24 40 C 37.667969 40 44.183594 28.324219 45.792969 24.921875 C 46.070312 24.335938 46.070312 23.664062 45.792969 23.078125 C 44.183594 19.675781 37.667969 8 24 8 Z M 24 14 C 29.523438 14 34 18.476562 34 24 C 34 29.523438 29.523438 34 24 34 C 18.476562 34 14 29.523438 14 24 C 14 18.476562 18.476562 14 24 14 Z M 24 18 C 20.6875 18 18 20.6875 18 24 C 18 27.3125 20.6875 30 24 30 C 27.3125 30 30 27.3125 30 24 C 30 20.6875 27.3125 18 24 18 Z M 24 18 "/>
</g>
</svg>
